<?xml version="1.0" encoding="UTF-8"?> <svg xmlns="http://www.w3.org/2000/svg" id="Layer_2" data-name="Layer 2" viewBox="0 0 24 24"><defs><style> .cls-1 { stroke-width: 0px; } </style></defs><path class="cls-1" d="m12,2.5C6.762,2.5,2.5,6.762,2.5,12s4.262,9.5,9.5,9.5,9.5-4.262,9.5-9.5S17.238,2.5,12,2.5Zm8.475,9h-3.986c-.078-3.304-.918-6.108-2.17-7.67,3.407.969,5.941,4.01,6.156,7.67Zm-8.475,9c-1.634,0-3.374-3.196-3.489-8h6.978c-.115,4.804-1.855,8-3.489,8Zm-3.489-9c.115-4.804,1.855-8,3.489-8s3.374,3.196,3.489,8h-6.978Zm1.17-7.67c-1.251,1.562-2.091,4.366-2.17,7.67h-3.986c.215-3.661,2.749-6.702,6.156-7.67ZM3.525,12.5h3.986c.078,3.304.918,6.108,2.17,7.67-3.407-.969-5.941-4.01-6.156-7.67Zm10.794,7.67c1.251-1.562,2.091-4.366,2.17-7.67h3.986c-.215,3.661-2.749,6.702-6.156,7.67Z"></path></svg> 