<?xml version="1.0" encoding="UTF-8"?> <svg xmlns="http://www.w3.org/2000/svg" id="Outline_Expand" data-name="Outline Expand" viewBox="0 0 64 64"><title>Handshake</title><path d="M6.42,30.32H6.5a4.76,4.76,0,0,0,2.28-.6l.64.53A13.16,13.16,0,0,1,13,35.05,3.92,3.92,0,0,0,13,37.56a4,4,0,0,0,2.53,2.66,3.86,3.86,0,0,0-.17,3,4,4,0,0,0,2.57,2.53,4.67,4.67,0,0,0,.74.17,1.1,1.1,0,0,0-.06.26,4,4,0,0,0,.61,3A4.09,4.09,0,0,0,22.82,51a4.31,4.31,0,0,0,1-.2,3.9,3.9,0,0,0,.68,2,4,4,0,0,0,2.57,1.71,3.68,3.68,0,0,0,.8.08A3.81,3.81,0,0,0,30,54l11-6.08A9,9,0,0,0,44.7,44.1,37.73,37.73,0,0,1,54,32.94l.75-.59a4.9,4.9,0,0,0,1.61.46l.46,0a4.78,4.78,0,0,0,3.05-1.1l0,0h0a4.8,4.8,0,0,0,.64-6.76L49.22,11.27a4.82,4.82,0,0,0-8.5,2.63,4.82,4.82,0,0,0,.12,1.52l-.42.34a13.15,13.15,0,0,1-7.2,2.86,25.44,25.44,0,0,0-4.13.69c-.31,0-.59-.09-.77-.1l-5.58-3.68a4.43,4.43,0,0,0,.19-1.21,4.79,4.79,0,0,0-1.35-3.42l0,0a4.8,4.8,0,0,0-6.78-.11L3.13,22.05a4.83,4.83,0,0,0,3.29,8.27ZM43.74,12.17a2.78,2.78,0,0,1,1.78-.64h.27a2.79,2.79,0,0,1,1.89,1L59,26.22a2.8,2.8,0,0,1-.37,3.94l0,0a2.79,2.79,0,0,1-2,.64,2.76,2.76,0,0,1-1.89-1L43.34,16.14a2.81,2.81,0,0,1,.4-4ZM33.39,20.61a15.09,15.09,0,0,0,8.28-3.29l0,0,.08.12L53.13,31.09l-.36.27A39.89,39.89,0,0,0,43,43.11a7.15,7.15,0,0,1-2.86,3L29,52.24a2,2,0,0,1-1.53.31,2,2,0,0,1-1.24-3.2l7.62-5.48a1,1,0,0,0,.23-1.39,1,1,0,0,0-1.4-.23l-7.77,5.59v0l-1.23.81a2,2,0,0,1-1,.34,2,2,0,0,1-1.86-.89,2.07,2.07,0,0,1,.56-2.84h0l10.88-7.59a1,1,0,0,0-1.15-1.64L20.28,43.62h0a2.05,2.05,0,0,1-1.77.25,2.09,2.09,0,0,1-1.31-1.3,2.11,2.11,0,0,1,.89-2.4l7.3-5.2a1,1,0,0,0,.23-1.4,1,1,0,0,0-1.39-.23l-7.1,5.06A2,2,0,0,1,14.86,37a2.15,2.15,0,0,1,.93-2.36l7.1-4.76a12.48,12.48,0,0,0,8.36,2.51c.26,0,.5,0,.73,0a8.37,8.37,0,0,1,1.7.24,19.69,19.69,0,0,0,4.08.46,8.36,8.36,0,0,0,5.06-1.32A3.54,3.54,0,0,0,44.23,29c.1-2.67-2.28-3.77-4.81-4.94A22.27,22.27,0,0,1,35.62,22a16.87,16.87,0,0,0-2.38-1.4ZM21.8,17.3,27.44,21a1,1,0,0,0,.55.17,6,6,0,0,1,1,.11,13.54,13.54,0,0,1,5.49,2.35,24.52,24.52,0,0,0,4.13,2.25c2.37,1.09,3.7,1.77,3.65,3a1.52,1.52,0,0,1-.64,1.21c-1.27,1-4.21,1.18-7.48.49A9.84,9.84,0,0,0,32,30.36c-.25,0-.52,0-.82,0-2,.05-5,.13-9.4-4a1,1,0,0,0-1.36,1.46c.26.25.52.48.78.7L14.68,33a3.49,3.49,0,0,0-.32.25,15.29,15.29,0,0,0-3.66-4.5l-.32-.27L21.47,17.69A4,4,0,0,0,21.8,17.3ZM4.52,23.48,16.16,12.21a2.8,2.8,0,0,1,1.95-.79h0a2.76,2.76,0,0,1,2,.85l0,0a2.69,2.69,0,0,1,.79,2,2.74,2.74,0,0,1-.85,2L8.44,27.53a2.93,2.93,0,0,1-2,.79,2.82,2.82,0,0,1-1.93-4.84Z"></path></svg> 