<?xml version="1.0" encoding="UTF-8"?> <svg xmlns="http://www.w3.org/2000/svg" id="Capa_2" data-name="Capa 2" viewBox="0 0 31 60"><defs><style> .cls-1 { fill: #231f20; } .cls-2 { stroke: #231f20; stroke-width: 2px; } .cls-2, .cls-3 { stroke-miterlimit: 10; } .cls-2, .cls-3, .cls-4, .cls-5 { fill: none; } .cls-3 { stroke: #9ba; } .cls-4 { stroke: #000; } .cls-4, .cls-5 { stroke-linecap: round; stroke-linejoin: round; } .cls-5 { stroke: #f6921e; } </style></defs><g id="Layer_1" data-name="Layer 1"><g><path class="cls-1" d="M24.12,16c1.04,0,1.88.84,1.88,1.88v24.24c0,1.04-.84,1.88-1.88,1.88H3.88c-1.04,0-1.88-.84-1.88-1.88v-24.24c0-1.04.84-1.88,1.88-1.88h20.24M24.12,14H3.88c-2.14,0-3.88,1.74-3.88,3.88v24.24c0,2.14,1.74,3.88,3.88,3.88h20.24c2.14,0,3.88-1.74,3.88-3.88v-24.24c0-2.14-1.74-3.88-3.88-3.88h0Z"></path><path class="cls-2" d="M20.18,1.78c-.1-.45-.51-.78-.97-.78h-10.41c-.47,0-.87.32-.97.78l-2.82,12.22h18l-2.82-12.22Z"></path><polygon class="cls-1" points="5 14 5.86 11 22.21 11 23 14 5 14"></polygon><path class="cls-2" d="M20.18,58.22c-.1.45-.51.78-.97.78h-10.41c-.47,0-.87-.32-.97-.78l-2.82-12.22h18l-2.82,12.22Z"></path><polygon class="cls-1" points="5 46 5.86 49 22.21 49 23 46 5 46"></polygon><path class="cls-1" d="M27,21h1.86c1.18,0,2.14.96,2.14,2.14v3.72c0,1.18-.96,2.14-2.14,2.14h-1.86v-8h0Z"></path><path class="cls-4" d="M14,26c2.21,0,4,1.79,4,4s-1.79,4-4,4"></path><path class="cls-5" d="M14,23.5c3.59,0,6.5,2.91,6.5,6.5s-2.91,6.5-6.5,6.5-6.5-2.91-6.5-6.5c0-1.79.73-3.42,1.9-4.6"></path><path class="cls-4" d="M14,20.5c5.25,0,9.5,4.25,9.5,9.5s-4.25,9.5-9.5,9.5-9.5-4.25-9.5-9.5"></path><circle class="cls-3" cx="14" cy="30" r="6.5"></circle></g></g></svg> 