<?xml version="1.0" encoding="UTF-8"?> <svg xmlns="http://www.w3.org/2000/svg" id="Capa_2" data-name="Capa 2" viewBox="0 0 32 58"><defs><style> .cls-1 { fill: #231f20; } .cls-2 { fill: #9ba; } .cls-3 { fill: #faaf40; } </style></defs><g id="Layer_1" data-name="Layer 1"><g><path class="cls-1" d="M28.6,2c.77,0,1.4.63,1.4,1.4v50.72c0,1.04-.84,1.88-1.88,1.88H3.88c-1.04,0-1.88-.84-1.88-1.88V3.88c0-1.04.84-1.88,1.88-1.88h24.72M28.6,0H3.88C1.74,0,0,1.74,0,3.88v50.24c0,2.14,1.74,3.88,3.88,3.88h24.24c2.14,0,3.88-1.74,3.88-3.88V3.4c0-1.88-1.52-3.4-3.4-3.4h0Z"></path><g><path class="cls-3" d="M11.16,4c-.64,0-1.16-.52-1.16-1.16v-.84h12v.84c0,.64-.52,1.16-1.16,1.16h-9.68Z"></path><path class="cls-1" d="M23,1h-14v1.84c0,1.19.97,2.16,2.16,2.16h9.68c1.19,0,2.16-.97,2.16-2.16v-1.84h0Z"></path></g><rect x="14" y="9" width="4" height="4" rx="1.33" ry="1.33"></rect><rect x="22" y="9" width="4" height="4" rx="1.33" ry="1.33"></rect><rect class="cls-2" x="6" y="9" width="4" height="4" rx="1.33" ry="1.33"></rect><rect x="14" y="19" width="4" height="4" rx="1.33" ry="1.33"></rect><rect x="22" y="19" width="4" height="4" rx="1.33" ry="1.33"></rect><rect x="6" y="19" width="4" height="4" rx="1.33" ry="1.33"></rect><rect x="14" y="29" width="4" height="4" rx="1.33" ry="1.33"></rect><rect x="6" y="29" width="4" height="4" rx="1.33" ry="1.33"></rect><rect x="14" y="49" width="4" height="4" rx="1.33" ry="1.33"></rect><rect x="22" y="49" width="4" height="4" rx="1.33" ry="1.33"></rect><rect x="6" y="49" width="4" height="4" rx="1.33" ry="1.33"></rect></g></g></svg> 