<?xml version="1.0" encoding="UTF-8"?> <svg xmlns="http://www.w3.org/2000/svg" id="Capa_2" data-name="Capa 2" viewBox="0 0 40 58"><defs><style> .cls-1 { fill: #231f20; } .cls-2 { fill: #9ba; } </style></defs><g id="Layer_1" data-name="Layer 1"><g><path class="cls-1" d="M36.2,2c.99,0,1.8.81,1.8,1.8v49.87c0,1.29-1.05,2.34-2.34,2.34H4.34c-1.29,0-2.34-1.05-2.34-2.34V4.34c0-1.29,1.05-2.34,2.34-2.34h31.87M36.2,0H4.34C1.94,0,0,1.94,0,4.34v49.32c0,2.4,1.94,4.34,4.34,4.34h31.32c2.4,0,4.34-1.94,4.34-4.34V3.8c0-2.1-1.7-3.8-3.8-3.8h0Z"></path><g><rect x="14.5" y="9" width="4" height="4" rx="1.33" ry="1.33"></rect><rect x="22.5" y="9" width="4" height="4" rx="1.33" ry="1.33"></rect><rect x="29.5" y="9" width="4" height="4" rx="1.33" ry="1.33"></rect><rect x="29.5" y="19" width="4" height="4" rx="1.33" ry="1.33"></rect><rect x="29.5" y="49" width="4" height="4" rx="1.33" ry="1.33"></rect><rect class="cls-2" x="6.5" y="9" width="4" height="4" rx="1.33" ry="1.33"></rect><rect x="14.5" y="19" width="4" height="4" rx="1.33" ry="1.33"></rect><rect x="22.5" y="19" width="4" height="4" rx="1.33" ry="1.33"></rect><rect x="6.5" y="19" width="4" height="4" rx="1.33" ry="1.33"></rect><rect x="14.5" y="29" width="4" height="4" rx="1.33" ry="1.33"></rect><rect x="6.5" y="29" width="4" height="4" rx="1.33" ry="1.33"></rect><rect x="14.5" y="49" width="4" height="4" rx="1.33" ry="1.33"></rect><rect x="22.5" y="49" width="4" height="4" rx="1.33" ry="1.33"></rect><rect x="6.5" y="49" width="4" height="4" rx="1.33" ry="1.33"></rect></g><rect x="29.5" y="49" width="4" height="4" rx="1.33" ry="1.33"></rect><rect x="14.5" y="49" width="4" height="4" rx="1.33" ry="1.33"></rect><rect x="22.5" y="49" width="4" height="4" rx="1.33" ry="1.33"></rect><rect x="6.5" y="49" width="4" height="4" rx="1.33" ry="1.33"></rect></g></g></svg> 