<?xml version="1.0" encoding="UTF-8"?> <svg xmlns="http://www.w3.org/2000/svg" id="Capa_2" data-name="Capa 2" viewBox="0 0 2160 622.92"><g id="Capa_1-2" data-name="Capa 1"><g><path d="M305,393.93l156.5-157c22.49,44.9,21.98,98.4,6.51,145.51-18.92,57.65-64.84,97.41-106.53,138.51-33.97,33.48-68.43,66.54-102.48,99.97v-61.5c38.86-38.67,80.64-74.85,118.03-114.97,24.69-26.5,44.76-53.59,53.48-89.52,1.7-7.01,3.89-14.9,3-22l-4.04,2.96-170.47,172.03v-183.5l152.5-153.48c8.09,8.78,17,17.19,24.47,26.51,1.66,2.07,6.56,7.17,5.58,9.45l-136.55,137.53v49.5Z"></path><path d="M221,392.93L68.98,239.43c-1.51-.85-3.33-.91-4.5.49-3.42,6.23-7.51,12.08-10.35,18.65-1.66,3.85-5.31,10.32-3.21,13.91l169.54,171.47c1.16,46.82.26,93.69.48,140.52.06,11.88.62,23.99.51,35.96,0,.61-.24,2.4-.97,2.5-10.49-10.17-20.49-20.86-30.98-31.02-54.25-52.59-148.97-129.88-176.01-198.99-6.66-17.02-10.66-34.95-13.52-52.97l3.01,1.48c22.67,25.56,48.87,47.94,72.02,72.98,28.59,30.93,56.21,63.05,87.45,91.55,1.55,1.41,9.88,9.2,10.53,9.48,1.08.47,2-.77,2-1.01v-50L1.95,289.48c-1.47-1.81-1.01-3.86-.84-5.92.63-7.6,4.34-19.74,6.86-27.17,11.14-32.96,34-61.42,58.54-85.44,51.66,51.98,103.49,103.95,154.5,156.48v65.5Z"></path><path d="M293.35,172.28c9.15-9.3,19.62-17.53,27.58-27.98.3-1.67-21.99-23.82-23.63-24.26-4.05-1.09-50.5,51.11-57.94,56.82l-31.43-30.36-.82-2.87,87.39-88.68,90.43,90.62-146.29,148.29L92.07,145.56,239.36,0l29.56,30.29c-35.93,38.04-74.41,73.63-110.98,111.08l-.81,3.84,81.5,81.61c.92.16,4.03-2.12,4.85-2.9,17.18-16.34,33.2-34.72,49.86-51.64Z"></path><path d="M1141.8,108.23c32.44-2.66,63.03,4.48,88.67,24.73,48.29,38.14,56.72,111.97,20.63,161.33,2.52,4.01,25.31,20.23,24.82,23.01-.32,1.84-22.63,23.65-25.42,27.46l-27-23.58c-59.69,40.39-145.21,21.71-176.22-45.03-33.99-73.14,13.26-161.26,94.51-167.91ZM1180.02,231.93l38.62,34.93c3.66.65,9.27-16.48,10.07-19.72,10.58-43.06-11.74-90.76-56.86-100.55-62.65-13.59-106.1,44.26-89.86,102.86,13.21,47.67,68.18,71.2,111,44.98l-37.94-33,24.98-29.5Z"></path><path d="M1660.8,108.23c85.6-7.54,150.49,64.52,127.7,148.7-28.19,104.12-178.26,116.11-222.36,18.36-32.99-73.14,13.87-159.94,94.66-167.06ZM1663.79,145.22c-88.03,8.98-87,151.74,1.72,159.69,113.62,10.18,112.3-171.32-1.72-159.69Z"></path><path d="M998,111.93v36h-128v58h113v36h-113v60h128.5c.11,0,1.5,1.39,1.5,1.5v34.5h-170V111.93h168Z"></path><path d="M2160,337.93h-43l-23.46-54.07-106.43.19-22.11,53.88h-41l98.09-226.41c.72-1.55,1.93-1.48,3.36-1.64,6.71-.77,25.44-.81,32.11,0,1.1.13,2.19.02,2.96,1.04l99.49,227.01ZM2003,247.93h76l-38.49-88.01-37.51,88.01Z"></path><path d="M1358,111.93v141.5c0,4.33,4.16,17.5,6.14,21.86,17.99,39.41,82.35,40.16,100.71,1,1.98-4.21,6.14-16.64,6.14-20.86V111.93h41c-1.51,43.08,2.03,87.55-.01,130.49-3.1,65.22-38.05,103.1-105.54,99.56-61.42-3.23-87-42.86-89.49-100.51-1.84-42.69,1.46-86.72.04-129.54h41Z"></path><path d="M662.35,187.58c12.35,14.02,66.59,21.84,87.33,32.17,55.88,27.83,39.81,104.55-19.66,118.69-42.32,10.06-89.68-3.51-121.58-32.49-.96-1.16-.1-1.68.51-2.56,6.11-8.76,15.87-17.83,22.7-26.31,1.45-.27,17.63,12.6,21.05,14.65,21.42,12.81,75.11,25.72,88.18-3.43,10.74-23.95-10.27-34.67-29.11-40.64-36.71-11.65-90.29-14.59-94.75-64.25-6.84-76.05,81.87-88.91,135.84-61.84,3.58,1.79,21.42,12.01,22.7,14.36.58,1.06.62,1.92-.05,2.95l-20.11,27.98c-22.46-14.83-55.04-30.85-82.09-19.12-15.19,6.58-22.34,26.92-10.96,39.85Z"></path><rect x="1843" y="111.93" width="40" height="226"></rect><path d="M1355.5,411.93l53.5,69v-69h19v102h-17c-4.84-8.01-10.85-15.53-16.6-22.9-12.61-16.13-25-32.79-38.4-48.1v71h-18v-102h17.5Z"></path><path d="M1776.5,411.93c31.6,4.01,40.99,44.49,14.21,60.21-2.02,1.18-8.07,2.21-7.72,4.27l26.01,37.52h-21.5c-2.15,0-22.69-35-25-35h-21.5v35h-19v-102h54.5ZM1741,461.93h32.5c.44,0,5.97-2.59,6.84-3.16,7.56-4.96,9.41-17.5,3.53-24.2-1.29-1.47-8.98-5.64-10.36-5.64h-32.5v33Z"></path><path d="M757.8,410.23c72.21-6.46,78.8,99.7,10.68,105.69-73.01,6.41-79.71-99.51-10.68-105.69ZM757.76,427.19c-42.62,5.74-37.2,77.52,10.63,71.63,42.61-5.24,36.04-77.92-10.63-71.63Z"></path><path d="M1251.79,410.22c72.95-6.96,79.48,99.53,11.69,105.69-73.16,6.65-80.03-99.17-11.69-105.69ZM1252.78,427.21c-42.76,5.19-38.34,76.61,9.59,71.59,42.61-4.47,37.72-77.33-9.59-71.59Z"></path><path d="M1845.35,424.28c27.24-25.88,75.98-15.43,87.93,20.87,13.87,42.13-22.7,79.63-65.31,69.31-40.03-9.69-51.96-62.31-22.62-90.18ZM1906.65,489.57c34.69-35.59-20.56-88.04-50.62-50.12-28.21,35.59,20.77,80.75,50.62,50.12Z"></path><path d="M1693,500.43c-28.57,25.79-82.28,19.79-93.3-20.7-15.25-56.03,48.21-91.61,90.28-55.3l-10.95,13.07c-1.17.58-9.18-5.76-11.35-6.75-33.64-15.34-61.75,18.35-46.87,49.87,10.23,21.68,36.68,22.77,55.19,11.31v-19h-26v-16h43v43.5Z"></path><path d="M957,411.93v67.5c0,.39,2.35,6.25,2.82,7.18,7.7,15.41,33.7,16.77,43.01,2.65,1.02-1.54,4.17-8.46,4.17-9.83v-67.5h19v64.5c0,45.85-71.75,54.82-85.28,12.28-.67-2.11-2.72-9.66-2.72-11.28v-65.5h19Z"></path><path d="M1980,411.93v64.5c0,1.15,2.14,7.67,2.83,9.17,7.11,15.56,32.29,18.08,42.52,5.06,1.6-2.04,5.66-11.09,5.66-13.24v-65.5h18v68.5c0,4.91-5.82,16.9-9.02,20.98-16.89,21.47-60.4,19.34-73.15-5.8-1.31-2.57-4.83-12.81-4.83-15.17v-68.5h18Z"></path><path d="M2098,481.93v32h-18v-102h47.5c12.12,0,25.7,11.08,29.54,22.46,8.52,25.23-10.86,47.54-36.54,47.54h-22.5ZM2098,464.93h25.5c1.93,0,9.83-3.89,11.55-5.45,7.73-7.06,6.9-22.16-2.51-27.58-.9-.52-6.65-2.97-7.03-2.97h-27.5v36Z"></path><path d="M645.83,410.16c13.13-.4,28.37,4.53,38.13,13.37l-9.58,13.32c-9.32-8.13-40.65-17.72-43.97.05-2.85,15.26,25.54,17.31,35.84,21.28,17.01,6.57,25.86,20.02,18.94,38.43-10.57,28.13-60,21.72-77.14,2.71-.17-.83,9.39-12.44,11.46-12.43.84,0,11.13,7.59,14.14,8.89,11.3,4.88,40.85,6.04,34.91-12.91-4.63-14.76-47.9-8.28-55.27-32.72-6.91-22.92,10.48-39.31,32.55-39.98Z"></path><path d="M1519.89,436.85c-10.99-5.19-19.43-11.33-32.4-9.92s-17.95,15.25-6.2,22.21c16.15,9.56,46.98,5.02,50.44,31.55,5.03,38.54-44.3,41.34-69.26,26.27-2.27-1.37-9.97-6.23-9.01-8.97,1.18-3.38,8.05-8.42,10.04-12.04,10.42,9.61,22.57,14.63,37,12.99,11.92-1.36,18.06-15.06,7.83-21.84-13.89-9.22-48.06-6.34-51.25-29.75-5.76-42.24,47.75-45.28,71.9-23.92l-9.09,13.42Z"></path><polygon points="1132 411.93 1132 428.93 1100 428.93 1100 513.93 1081 513.93 1081 428.93 1049 428.93 1049 411.93 1132 411.93"></polygon><polygon points="862 411.93 862 497.93 916 497.93 916 513.93 844 513.93 844 411.93 862 411.93"></polygon><rect x="1157" y="411.93" width="19" height="102"></rect></g></g></svg> 