<?xml version="1.0" encoding="UTF-8"?> <svg xmlns="http://www.w3.org/2000/svg" id="Capa_2" data-name="Capa 2" viewBox="0 0 38 38"><g id="Outline"><g><path d="M7,13.5c-3.58,0-6.5-2.92-6.5-6.5S3.42.5,7,.5s6.5,2.92,6.5,6.5-2.92,6.5-6.5,6.5ZM7,9.5c-1.19,0-2.36.33-3.38.95l-.61.37.55.45c1,.81,2.19,1.24,3.44,1.24s2.43-.43,3.43-1.23l.55-.44-.6-.37c-1.02-.63-2.16-.95-3.38-.95ZM7,4.5c1.38,0,2.5,1.12,2.5,2.5,0,.41-.11.82-.33,1.2l-.29.52.56.2c.59.2,1.15.48,1.67.83l.46.3.26-.49c.44-.83.66-1.69.66-2.57,0-3.03-2.47-5.5-5.5-5.5S1.5,3.97,1.5,7c0,.88.22,1.74.66,2.56l.26.48.46-.3c.52-.34,1.09-.62,1.68-.82l.56-.19-.29-.52c-.22-.39-.32-.79-.32-1.2,0-1.38,1.12-2.5,2.5-2.5ZM7,5.5c-.83,0-1.5.67-1.5,1.5s.67,1.5,1.5,1.5,1.5-.67,1.5-1.5-.67-1.5-1.5-1.5Z"></path><path d="M31,13.5c-3.58,0-6.5-2.92-6.5-6.5S27.42.5,31,.5s6.5,2.92,6.5,6.5-2.92,6.5-6.5,6.5ZM31,9.5c-1.23,0-2.36.32-3.38.95l-.6.37.55.44c1,.81,2.19,1.23,3.43,1.23s2.43-.43,3.44-1.24l.55-.45-.61-.37c-1.02-.62-2.19-.95-3.38-.95ZM31,1.5c-3.03,0-5.5,2.47-5.5,5.5,0,.88.22,1.74.66,2.57l.26.49.46-.3c.52-.35,1.08-.63,1.67-.83l.56-.2-.29-.52c-.22-.39-.33-.79-.33-1.2,0-1.38,1.12-2.5,2.5-2.5s2.5,1.12,2.5,2.5c0,.41-.11.82-.32,1.2l-.29.52.56.19c.59.2,1.15.48,1.68.82l.46.3.26-.48c.44-.82.66-1.68.66-2.56,0-3.03-2.47-5.5-5.5-5.5ZM31,5.5c-.83,0-1.5.67-1.5,1.5s.67,1.5,1.5,1.5,1.5-.67,1.5-1.5-.67-1.5-1.5-1.5Z"></path><path d="M7,37.5c-3.58,0-6.5-2.92-6.5-6.5s2.92-6.5,6.5-6.5,6.5,2.92,6.5,6.5-2.92,6.5-6.5,6.5ZM7,33.5c-1.19,0-2.36.33-3.38.95l-.61.37.55.45c1,.81,2.19,1.24,3.44,1.24s2.43-.43,3.43-1.23l.55-.44-.6-.37c-1.02-.63-2.16-.95-3.38-.95ZM7,28.5c1.38,0,2.5,1.12,2.5,2.5,0,.41-.11.82-.33,1.2l-.29.52.56.2c.59.2,1.15.48,1.67.83l.46.3.26-.49c.44-.83.66-1.69.66-2.57,0-3.03-2.47-5.5-5.5-5.5s-5.5,2.47-5.5,5.5c0,.88.22,1.74.66,2.56l.26.48.46-.3c.52-.34,1.09-.62,1.68-.82l.56-.19-.29-.52c-.22-.39-.32-.79-.32-1.2,0-1.38,1.12-2.5,2.5-2.5ZM7,29.5c-.83,0-1.5.67-1.5,1.5s.67,1.5,1.5,1.5,1.5-.67,1.5-1.5-.67-1.5-1.5-1.5Z"></path><path d="M31,37.5c-3.58,0-6.5-2.92-6.5-6.5s2.92-6.5,6.5-6.5,6.5,2.92,6.5,6.5-2.92,6.5-6.5,6.5ZM31,33.5c-1.23,0-2.36.32-3.38.95l-.6.37.55.44c1,.81,2.19,1.23,3.43,1.23s2.43-.43,3.44-1.24l.55-.45-.61-.37c-1.02-.62-2.19-.95-3.38-.95ZM31,25.5c-3.03,0-5.5,2.47-5.5,5.5,0,.88.22,1.74.66,2.57l.26.49.46-.3c.52-.35,1.08-.63,1.67-.83l.56-.2-.29-.52c-.22-.39-.33-.79-.33-1.2,0-1.38,1.12-2.5,2.5-2.5s2.5,1.12,2.5,2.5c0,.41-.11.82-.32,1.2l-.29.52.56.19c.59.2,1.15.48,1.68.82l.46.3.26-.48c.44-.82.66-1.68.66-2.56,0-3.03-2.47-5.5-5.5-5.5ZM31,29.5c-.83,0-1.5.67-1.5,1.5s.67,1.5,1.5,1.5,1.5-.67,1.5-1.5-.67-1.5-1.5-1.5Z"></path><path d="M24.12,14.72c-.15,0-.29-.06-.38-.16-.38-.43-.84-.81-1.35-1.12-.5-.3-1.04-.54-1.6-.7l-1.85-.52,1.36,1.36c.16.16.21.28.21.42s-.05.26-.15.35c-.12.12-.27.14-.35.14-.14,0-.27-.05-.36-.14l-2-2c-.19-.2-.19-.51,0-.71l2-2c.09-.09.22-.15.35-.15s.26.05.35.15c.09.09.15.22.15.35s-.05.26-.15.35l-1.1,1.1.96.16c.98.16,1.88.49,2.68.98.6.36,1.13.79,1.58,1.3.09.1.13.23.13.36s-.07.26-.17.34c-.09.08-.2.12-.33.12h0Z"></path><path d="M12,20.5c-.13,0-.26-.05-.35-.15l-2-2c-.19-.2-.19-.51,0-.71.09-.09.22-.15.35-.15s.26.05.35.15l1.1,1.1.16-.96c.16-.98.49-1.88.98-2.68.36-.6.8-1.13,1.3-1.58.09-.08.21-.13.33-.13.15,0,.28.06.37.17.18.21.17.52-.04.71-.43.39-.81.84-1.11,1.35-.3.49-.54,1.04-.7,1.6l-.52,1.85,1.36-1.36c.16-.16.28-.21.42-.21s.26.05.35.15c.09.09.15.22.15.35s-.05.26-.15.35l-2,2c-.09.09-.22.15-.35.15Z"></path><path d="M23.77,24.61c-.14,0-.28-.06-.37-.16-.18-.21-.17-.52.04-.71.43-.39.81-.84,1.11-1.35.3-.49.54-1.04.7-1.6l.52-1.85-1.36,1.36c-.16.16-.28.21-.42.21s-.26-.05-.35-.15c-.09-.09-.15-.22-.15-.35s.05-.26.15-.35l2-2c.09-.09.22-.15.35-.15s.26.05.35.15l2,2c.19.2.19.51,0,.71-.09.09-.22.14-.35.14s-.26-.05-.35-.14l-1.1-1.1-.16.96c-.16.98-.49,1.88-.98,2.68-.36.6-.8,1.13-1.3,1.58-.09.08-.21.12-.33.12Z"></path><path d="M18,28.49c-.14,0-.27-.05-.36-.14-.09-.09-.15-.22-.15-.35s.05-.26.15-.35l1.1-1.1-.96-.16c-.98-.16-1.88-.49-2.68-.98-.6-.36-1.13-.79-1.58-1.3-.09-.1-.13-.23-.13-.36s.07-.26.17-.34c.09-.08.21-.13.33-.13.14,0,.28.06.38.17.38.43.84.81,1.35,1.12.5.3,1.04.54,1.6.7l1.85.52-1.36-1.36c-.16-.16-.21-.28-.21-.42s.05-.26.15-.35c.09-.09.22-.15.35-.15s.26.05.35.15l2,2c.19.2.19.51,0,.71l-2,2c-.09.09-.21.14-.35.14Z"></path></g></g></svg> 