<?xml version="1.0" encoding="UTF-8"?> <svg xmlns="http://www.w3.org/2000/svg" id="Capa_2" data-name="Capa 2" viewBox="0 0 58 40.78"><defs><style> .cls-1 { fill: #231f20; } .cls-2 { fill: #9ba; } </style></defs><g id="Layer_1" data-name="Layer 1"><g><path class="cls-1" d="M51.48,2c.99,0,1.8.81,1.8,1.8v30.27h-17.62c-1.67,0-3.33.55-4.67,1.55l-.15.11h-4.2c-.94-1.05-2.28-1.67-3.74-1.67H4.72V4.34c0-1.29,1.05-2.34,2.34-2.34h44.43M51.48,0H7.06C4.66,0,2.72,1.94,2.72,4.34v31.72h20.19c1.14,0,2.18.64,2.69,1.67h5.91l.68-.51c1-.75,2.22-1.15,3.47-1.15h19.62V3.8c0-2.1-1.7-3.8-3.8-3.8h0Z"></path><path class="cls-1" d="M56,36.44v1.62c0,.4-.32.72-.72.72H2.72c-.4,0-.72-.32-.72-.72v-1.62h21.74c.43,1.06,1.48,1.81,2.69,1.81h5.42c1.22,0,2.26-.75,2.69-1.81h21.46M58,34.44h-24.34c-.5,0-.91.41-.91.91s-.41.91-.91.91h-5.42c-.5,0-.91-.41-.91-.91s-.41-.91-.91-.91H0v3.62c0,1.5,1.22,2.72,2.72,2.72h52.56c1.5,0,2.72-1.22,2.72-2.72v-3.62h0Z"></path><g><rect x="36.93" y="29.6" width="3.02" height="3.02" rx="1.33" ry="1.33"></rect><rect x="25.6" y="29.6" width="3.02" height="3.02" rx="1.33" ry="1.33"></rect><rect x="31.64" y="29.6" width="3.02" height="3.02" rx="1.33" ry="1.33"></rect><rect class="cls-2" x="18.05" y="28.09" width="4.53" height="4.53" rx="2" ry="2"></rect></g></g></g></svg> 