<svg width="1512" height="295" viewBox="0 0 1512 295" fill="none" xmlns="http://www.w3.org/2000/svg">
<path d="M1636.47 552.254C1633.91 549.632 1496.07 68.2289 1491.08 68.6988C1472.93 48.0562 1454.77 27.4287 1436.6 6.80131C1435.67 4.20962 1277.67 6.78616 1276.11 5.90711C1272.4 4.98258 1222.95 184.703 1221.19 186.113C1210.43 140.675 1179.2 109.514 1150.4 77.8985C1084.35 -14.0535 982.143 -26.2693 899.077 55.6191C890.339 45.707 881.615 35.7646 872.878 25.8525C869.903 22.4576 866.928 19.0626 863.927 15.6828C862.099 14.0459 860.818 11.0602 858.511 10.4085C856.576 12.5 711.92 6.34663 712.334 12.6061V71.6997C700.435 58.2411 668.686 22.1241 664.671 17.5773C662.256 15.3645 660.495 11.5906 657.587 10.4085H513.331C507.942 117.577 506.888 224.534 494.576 294.176C492.228 291.236 499.151 72.8515 492.095 73.2001C476.714 55.7252 461.333 38.235 445.939 20.7601C443.151 17.5773 440.363 14.3945 437.548 11.2269C436.615 8.86254 293.292 11.2117 291.798 10.4085C286.236 9.89316 291.745 247.571 289.864 249.753C274.71 232.597 259.61 215.364 244.469 198.192C242.641 196.555 241.414 193.494 238.906 193.221H200.154C210.399 166.365 240.094 91.342 222.859 74.352C214.294 64.6066 205.717 54.8613 197.14 45.1311C189.603 36.5527 182.052 27.9744 174.489 19.396C172.888 17.9107 171.754 15.2281 169.486 15.0614H-17.3102C-19.5913 15.0008 -21.1253 18.229 -19.7113 20.3357C-12.4412 31.9756 0.364998 62.4545 9.80953 96.01C20.8682 135.325 24.0964 167.153 18.8806 185.643C11.6638 203.088 -64.0926 194.282 -89.785 193.206C-91.3991 193.206 -92.7197 194.706 -92.7197 196.54V255.073C-92.613 257.68 -90.1852 258.908 -88.9046 260.757C-86.5834 263.409 -84.249 266.061 -81.9145 268.698C-75.2313 276.307 -68.5348 283.9 -61.8516 291.508C-70.7492 381.581 -10.747 433.703 39.0502 490.69C98.132 564.227 227.621 580.323 297.761 514.106V412.181C306.645 452.299 329.59 472.275 352.721 498.844C358.31 505.194 363.9 511.544 369.502 517.91C407.681 576.943 493.962 572.76 534.955 511.832C545.534 523.821 556.085 535.855 566.664 547.843C566.73 549.435 567.864 550.677 569.265 550.677H713.521C719.204 553.345 714.828 492.796 716.122 491.175C733.277 510.681 750.445 530.186 767.614 549.677C767.68 551.238 768.814 552.496 770.202 552.496H914.444C915.885 552.496 917.045 551.162 917.045 549.541V390.781C973.539 474.927 1076.51 489.508 1150.6 423.791L1131.24 488.947C1130.97 489.811 1131.24 490.811 1131.87 491.372C1135.78 495.828 1172.13 537.128 1186.4 553.33C1186.43 554.861 1187.63 556.164 1188.99 556.134H1342.61C1343.8 556.134 1344.84 555.224 1345.13 553.906L1363.7 471.851H1418.42C1418.99 473.381 1422.18 491.826 1423.86 492.039C1429.64 498.616 1465.52 539.371 1477.69 553.193C1477.9 554.77 1478.89 556.149 1480.37 556.118H1634.03C1635.74 556.179 1637.1 554.057 1636.5 552.208L1636.47 552.254ZM289.851 338.174C285.102 332.778 280.353 327.383 275.604 321.987H289.851V338.174Z" fill="black"/>
<path d="M657.294 484.128H513.051L511.504 442.57C525.924 419.745 551.683 353.013 562.502 281.022L536.742 278.097C514.078 417.987 462.04 493.495 393.007 493.495C323.974 493.495 291.518 438.478 291.518 339.555V12.5317H435.774V339.555C435.774 379.354 440.403 401.013 457.918 401.013C491.921 401.013 513.038 203.938 513.038 12.5317H657.28V484.128H657.294Z" fill="#F3CD5D"/>
<path d="M293.453 14.742V339.552C293.453 438.824 327.882 491.295 393.007 491.295C462.147 491.295 512.518 415.439 534.835 277.7C535.022 276.578 535.916 275.836 536.929 275.912L562.689 278.837C563.222 278.897 563.716 279.216 564.036 279.685C564.356 280.17 564.489 280.792 564.409 281.383C553.591 353.42 527.792 420.091 513.465 443.22L514.906 481.913H655.36V14.742H514.986C514.826 176.821 497.11 403.223 457.918 403.223C437.922 403.223 433.827 377.776 433.827 339.567V14.742H293.453ZM393.007 495.69C325.348 495.69 289.584 441.689 289.584 339.552V12.5292C289.584 11.3167 290.451 10.3315 291.518 10.3315H435.774C436.841 10.3315 437.708 11.3167 437.708 12.5292V339.552C437.708 382.201 443.378 398.812 457.918 398.812C487.239 398.812 511.104 225.533 511.104 12.5443C511.104 11.3318 511.971 10.3467 513.038 10.3467H657.281C658.348 10.3467 659.215 11.3318 659.215 12.5443V484.141C659.215 485.354 658.348 486.339 657.281 486.339H513.038C511.997 486.339 511.144 485.414 511.104 484.232L509.556 442.674C509.543 442.189 509.663 441.704 509.916 441.295C523.803 419.318 549.202 354.087 560.221 282.99L538.303 280.504C515.439 419.303 463.881 495.72 392.994 495.72L393.007 495.69Z" fill="black"/>
<path d="M1022.06 196.905C1054 138.372 1061.21 79.839 1038.54 64.0312C1014.84 48.2234 970.018 81.5971 938.603 140.706C905.627 198.648 898.93 257.771 922.115 273.579C944.779 289.387 989.601 254.846 1022.06 196.905ZM713.975 12.5308H858.217L859.765 54.0888C839.155 75.1558 808.767 139.554 808.767 215.637L835.553 219.73C835.553 205.68 837.608 150.072 867.489 99.7389C922.608 6.68057 1026.16 -25.511 1100.85 30.0816C1176.08 85.6892 1193.07 206.847 1139.5 301.087C1084.89 395.904 980.823 426.928 906.12 370.745C887.578 356.695 869.543 335.628 858.204 313.97V485.946H713.961V12.5308H713.975Z" fill="#F3CD5D"/>
<path d="M858.231 488.143H713.988C712.921 488.143 712.054 487.158 712.054 485.945V12.5298C712.054 11.3173 712.921 10.3321 713.988 10.3321H858.231C859.271 10.3321 860.125 11.2567 860.165 12.4388L861.712 53.9968C861.739 54.6485 861.499 55.2851 861.072 55.7246C840.342 76.928 811.221 139.765 810.714 213.712L833.645 217.213C833.912 198.783 837.381 146.54 865.901 98.5102C921.648 4.3758 1027.54 -27.1337 1101.93 28.2466C1177.64 84.2181 1195.23 207.149 1141.14 302.284C1112.86 351.39 1069.41 385.93 1021.94 397.04C980.463 406.755 938.963 398.055 905.066 372.563C887.885 359.543 871.49 340.856 860.165 321.562V485.915C860.165 487.127 859.298 488.113 858.231 488.113V488.143ZM715.922 483.748H856.296V313.984C856.296 312.999 856.883 312.12 857.724 311.862C858.577 311.59 859.458 312.014 859.898 312.863C870.89 333.854 888.578 354.815 907.214 368.94C940.23 393.781 980.689 402.253 1021.15 392.766C1067.62 381.884 1110.18 348.04 1137.9 299.919C1190.82 206.816 1173.74 86.6127 1099.83 31.9599C1027.18 -22.117 923.689 8.862 869.116 100.996C839.782 150.405 837.501 204.391 837.501 219.759C837.501 220.395 837.26 221.002 836.834 221.411C836.42 221.835 835.86 222.017 835.3 221.941L808.513 217.849C807.553 217.698 806.833 216.773 806.833 215.667C806.833 140.326 836.407 75.7761 857.804 53.1936L856.376 14.7729H715.922V483.778V483.748ZM934.654 279.519C929.612 279.519 925.036 278.201 921.101 275.458C914.524 270.971 910.096 263.333 907.921 252.739C902.238 224.957 913.644 180.52 936.962 139.507C968.484 80.2017 1014.51 45.4488 1039.52 62.1356C1045.83 66.5309 1050.07 73.8816 1052.18 83.9907C1057.94 111.605 1047.01 155.315 1023.7 198.055C1023.7 198.055 1023.7 198.055 1023.7 198.071C996.177 247.222 959.679 279.504 934.667 279.504L934.654 279.519ZM1024.72 62.1963C1000.5 62.1963 965.762 93.8725 940.257 141.857C917.446 181.96 906.24 225.079 911.696 251.753C913.617 261.135 917.459 267.849 923.115 271.699C944.832 286.84 988.466 252.769 1020.42 195.737C1042.87 154.588 1053.86 111.135 1048.42 85.0213C1046.55 76.0792 1042.89 69.6531 1037.53 65.9247C1033.75 63.4088 1029.43 62.2114 1024.72 62.2114V62.1963Z" fill="black"/>
<path d="M1387.31 308.878C1387.31 314.395 1383.38 318.881 1378.52 318.896L1329.1 319.124C1324.2 319.139 1320.24 314.637 1320.25 309.075L1320.47 209.242C1320.47 206.499 1321.47 203.892 1323.21 201.997L1335.59 181.431C1337.3 179.582 1338.29 177.05 1338.34 174.368L1339.7 100.452C1339.81 94.9954 1343.72 90.6456 1348.52 90.6456H1357.86C1362.61 90.6456 1366.5 94.9196 1366.67 100.3L1369.04 174.262C1369.12 176.899 1370.12 179.385 1371.8 181.203L1384.55 201.997C1386.32 203.892 1387.32 206.529 1387.32 209.287V308.878H1387.31ZM1434.76 8.01465H1275.83L1132.78 489.569H1286.4L1305.46 405.286H1405.07L1424.13 489.569H1577.79L1434.76 8.01465Z" fill="#F3CD5D"/>
<path d="M1337.06 182.855L1324.79 203.24C1324.71 203.361 1324.63 203.482 1324.52 203.588C1323.16 205.058 1322.39 207.104 1322.37 209.241L1322.16 309.075C1322.16 311.181 1322.87 313.151 1324.17 314.637C1325.47 316.107 1327.2 316.925 1329.04 316.925H1329.07L1378.49 316.698C1382.28 316.698 1385.35 313.182 1385.35 308.877V209.287C1385.35 207.135 1384.56 205.058 1383.19 203.588C1383.1 203.482 1383 203.376 1382.92 203.24L1370.28 182.627C1368.29 180.43 1367.16 177.489 1367.05 174.337L1364.69 100.375C1364.55 96.1467 1361.54 92.8426 1357.8 92.8426H1348.47C1344.74 92.8426 1341.66 96.2831 1341.58 100.496L1340.22 174.413C1340.17 177.565 1339.01 180.627 1337.03 182.855H1337.06ZM1577.8 491.781H1424.14C1423.26 491.781 1422.49 491.099 1422.26 490.129L1403.57 407.498H1306.97L1288.28 490.129C1288.05 491.099 1287.29 491.781 1286.4 491.781H1132.78C1132.15 491.781 1131.56 491.433 1131.2 490.857C1130.84 490.281 1130.74 489.538 1130.94 488.871L1274 7.31686C1274.27 6.42265 1275 5.81641 1275.84 5.81641H1434.77C1435.6 5.81641 1436.35 6.42265 1436.62 7.31686L1579.67 488.871C1579.87 489.538 1579.78 490.281 1579.4 490.857C1579.04 491.433 1578.46 491.781 1577.83 491.781H1577.8ZM1425.65 487.371H1575.11L1433.37 10.2117H1277.23L1135.48 487.371H1284.9L1303.59 404.74C1303.82 403.77 1304.58 403.088 1305.47 403.088H1405.08C1405.96 403.088 1406.73 403.77 1406.96 404.74L1425.65 487.371ZM1329.06 321.321C1326.19 321.321 1323.48 320.048 1321.45 317.744C1319.41 315.425 1318.29 312.348 1318.31 309.059L1318.52 209.226C1318.52 205.983 1319.69 202.846 1321.71 200.572L1333.98 180.187C1334.06 180.051 1334.14 179.945 1334.25 179.839C1335.57 178.414 1336.35 176.398 1336.38 174.337L1337.74 100.421C1337.86 93.8126 1342.69 88.4474 1348.49 88.4474H1357.83C1363.65 88.4474 1368.37 93.6156 1368.58 100.224L1370.94 174.185C1371.01 176.262 1371.77 178.171 1373.1 179.596C1373.2 179.702 1373.29 179.808 1373.37 179.945L1386.02 200.557C1388.07 202.846 1389.25 206.013 1389.25 209.287V308.877C1389.25 315.592 1384.43 321.078 1378.52 321.093L1329.1 321.321H1329.06Z" fill="black"/>
<path d="M125.292 491.357C21.9619 491.357 -62.1051 407.135 -62.1051 303.604C-62.1051 279.809 -51.1666 264.668 -44.7902 257.226H-90.0652C-91.1324 257.226 -91.9995 256.241 -91.9995 255.028V196.496C-91.9995 195.283 -91.1324 194.298 -90.0652 194.298C-78.4063 194.298 14.0781 205.392 19.5608 185.932C31.82 142.464 -3.98389 43.9648 -19.1779 19.6089C-19.5914 18.9421 -19.6581 18.063 -19.3246 17.3204C-18.9911 16.5929 -18.3241 16.123 -17.6038 16.123H169.193C170.26 16.123 171.127 17.1082 171.127 18.3207C171.127 87.978 112.139 194.268 112.392 194.268H238.599C239.667 194.268 240.534 195.253 240.534 196.465V254.998C240.534 256.211 239.667 257.196 238.599 257.196H89.6744C87.2199 258.863 80.5367 267.138 78.5891 277.126C77.1351 284.568 78.5891 291.206 82.9379 296.859C96.7312 315.319 154.439 308.272 172.768 303.77C194.752 298.572 216.669 291.509 237.946 282.779C238.546 282.537 239.2 282.628 239.72 283.052C240.24 283.461 240.547 284.128 240.547 284.856V450.496C240.547 451.224 240.227 451.891 239.707 452.315C207.078 477.838 167.499 491.342 125.278 491.342L125.292 491.357Z" fill="#F3CD5D"/>
<path d="M125.292 493.631C20.8552 493.631 -64.1056 408.393 -64.1056 303.604C-64.1056 287.265 -59.1433 272.458 -49.3252 259.499H-90.0648C-92.2392 259.499 -94 257.499 -94 255.028V196.496C-94 194.025 -92.2392 192.025 -90.0648 192.025C-87.8904 192.025 -83.5683 192.358 -77.4587 192.813C-54.9412 194.495 13.5984 199.633 17.6536 185.25C22.8028 166.987 19.5879 135.386 8.58261 96.2987C-0.835243 62.8492 -13.588 32.5067 -20.8048 20.9426C-21.6586 19.5786 -21.7786 17.7902 -21.085 16.3049C-20.4046 14.8196 -19.0707 13.8799 -17.59 13.8799H169.206C171.381 13.8799 173.142 15.8805 173.142 18.3509C173.142 76.035 133.803 157.817 115.914 192.025H238.626C240.801 192.025 242.562 194.025 242.562 196.496V255.028C242.562 257.499 240.801 259.499 238.626 259.499H90.3019C87.9007 261.53 82.258 268.957 80.5639 277.641C79.2566 284.34 80.5639 290.312 84.4591 295.404C96.9451 312.137 151.651 306.665 172.355 301.588C194.258 296.405 216.096 289.372 237.279 280.688C238.48 280.188 239.827 280.4 240.881 281.233C241.921 282.067 242.548 283.431 242.548 284.886V450.527C242.548 451.997 241.908 453.376 240.841 454.21C207.865 480.005 167.912 493.631 125.265 493.631H125.292ZM-44.7897 254.953C-43.9893 254.953 -43.2556 255.498 -42.9488 256.347C-42.642 257.196 -42.8021 258.166 -43.3623 258.817C-54.4743 271.791 -60.1171 286.856 -60.1171 303.604C-60.1171 405.877 23.0562 489.084 125.279 489.084C167.099 489.084 206.278 475.731 238.573 450.466L238.546 284.871C217.27 293.707 195.246 300.8 173.182 306.013C161.243 308.954 97.1718 319.442 81.4176 298.36C76.6553 292.161 75.0412 284.84 76.642 276.656C78.763 265.789 85.9931 257.074 88.6611 255.271C88.9679 255.059 89.3281 254.953 89.6882 254.953H238.613L238.546 196.496L112.392 196.571C111.672 196.571 111.005 196.132 110.645 195.419C110.058 194.252 110.298 193.798 111.605 191.312C163.51 92.6764 169.113 37.4931 169.113 18.3509L-17.6166 18.4267C-10.1731 30.1575 2.83318 61.0305 12.3711 94.9195C26.7914 146.162 25.2706 173.079 21.4421 186.644C17.04 202.255 -28.8354 201.027 -77.7522 197.359C-83.555 196.92 -88.1305 196.587 -90.0915 196.587L-90.0248 255.044L-44.8164 254.968L-44.7897 254.953Z" fill="black"/>
</svg>
