<?xml version="1.0" encoding="UTF-8"?>
<svg id="Capa_1" data-name="Capa 1" xmlns="http://www.w3.org/2000/svg" viewBox="0 0 1512 295">
  <defs>
    <style>
      .cls-1 {
        fill: #f5cf5d;
      }
    </style>
  </defs>
  <path class="cls-1" d="M564.04,279.69c.32.48.45,1.1.37,1.69-1.85,12.32-4.14,24.49-6.73,36.31h-30.49c2.83-12.68,5.39-26.02,7.65-39.99.18-1.12,1.08-1.86,2.09-1.79l25.76,2.93c.53.06,1.03.38,1.35.85Z"/>
  <path class="cls-1" d="M1052.18,83.99c5.76,27.62-5.17,71.33-28.48,114.07h0c-27.52,49.16-64.02,81.44-89.03,81.44l-.02.02c-5.04,0-9.61-1.32-13.55-4.06-6.58-4.49-11-12.13-13.18-22.72-5.68-27.78,5.72-72.22,29.04-113.23,31.52-59.31,77.55-94.06,102.56-77.37,6.31,4.39,10.55,11.74,12.66,21.85Z"/>
  <path class="cls-1" d="M1386.02,200.56c2.05,2.29,3.23,5.45,3.23,8.73v99.59c0,3.45-1.28,6.59-3.33,8.81h-64.51c-2.02-2.3-3.12-5.36-3.1-8.63l.21-99.83c0-3.25,1.17-6.38,3.19-8.66l12.27-20.38c.08-.14.16-.24.27-.35,1.32-1.43,2.1-3.44,2.13-5.5l1.36-73.92c.12-6.61,4.95-11.97,10.75-11.97h9.34c5.82,0,10.54,5.17,10.75,11.77l2.36,73.97c.07,2.07.83,3.98,2.16,5.41.1.1.19.21.27.35l12.65,20.61Z"/>
  <path class="cls-1" d="M1664.8-39.27v356.96h-140.09L1433.37,10.21h-156.14l-91.34,307.48h-59.35c4.01-5.68,7.81-11.61,11.36-17.77,52.92-93.1,35.84-213.31-38.07-267.96-72.65-54.08-176.14-23.1-230.71,69.04-29.34,49.41-31.62,103.39-31.62,118.76,0,.64-.24,1.24-.67,1.65-.41.43-.97.61-1.53.53l-26.79-4.09c-.96-.15-1.68-1.08-1.68-2.18,0-75.34,29.58-139.89,50.97-162.48l-1.42-38.42h-140.46v302.92h-60.56V14.74h-140.37c-.1,99.09-6.76,222.22-20.88,302.95h-60.28V14.74h-140.38v302.95h-52.9v-32.83c0-.73-.31-1.4-.83-1.81-.52-.42-1.17-.51-1.77-.27-21.28,8.73-43.2,15.79-65.18,20.99-18.33,4.5-76.04,11.55-89.83-6.91-4.35-5.65-5.8-12.29-4.35-19.73,1.95-9.99,8.63-18.27,11.08-19.93h148.93c1.07,0,1.93-.99,1.93-2.2v-58.53c0-1.22-.86-2.2-1.93-2.2h-126.21c-.25,0,58.74-106.29,58.74-175.95,0-1.21-.87-2.2-1.94-2.2H-17.6c-.72,0-1.39.47-1.72,1.2-.34.74-.27,1.62.14,2.29C-3.98,43.96,31.82,142.46,19.56,185.93c-5.48,19.46-97.97,8.37-109.63,8.37-1.06,0-1.93.98-1.93,2.2v58.53c0,1.21.87,2.2,1.93,2.2h45.28c-6.38,7.44-17.32,22.58-17.32,46.37,0,4.74.18,9.44.53,14.09h-51.44V-39.27h1777.82Z"/>
  <path d="M657.28,10.35h-144.24c-.26,0-.5.05-.72.15-.71.33-1.22,1.12-1.22,2.04,0,9.02-.04,17.97-.13,26.84-1.07,112.97-8.86,212.73-20.48,278.31-9,50.82-20.31,81.12-32.57,81.12-14.54,0-20.21-16.61-20.21-59.26V12.53c0-1.21-.87-2.2-1.94-2.2h-144.25c-.4,0-.78.14-1.08.38-.52.39-.86,1.06-.86,1.82v327.02c0,102.14,35.77,156.14,103.43,156.14l-.02.03c64.28,0,112.67-62.83,138.17-178.03,2.63-11.85,5.01-24.25,7.14-37.19l21.92,2.49c-1.83,11.78-4.05,23.41-6.55,34.7-12.57,56.84-32.17,105.27-43.75,123.61-.26.4-.38.89-.36,1.37l1.54,41.56c.04,1.18.9,2.11,1.94,2.11h144.24c1.07,0,1.94-.99,1.94-2.2V12.54c0-1.21-.87-2.19-1.94-2.19ZM655.36,481.91h-140.45l-1.44-38.69c11.87-19.17,31.63-68.27,44.21-125.53,2.59-11.82,4.88-23.99,6.73-36.31.08-.59-.05-1.21-.37-1.69-.32-.47-.82-.79-1.35-.85l-25.76-2.93c-1.01-.07-1.91.67-2.09,1.79-2.26,13.97-4.82,27.31-7.65,39.99-25.08,112.36-72.05,173.61-134.18,173.61s-99.56-52.48-99.56-151.75V14.74h140.38v324.83c0,38.21,4.09,63.65,24.09,63.65,15.23,0,27.22-34.2,36.19-85.53,14.12-80.73,20.78-203.86,20.88-302.95h140.37v467.17Z"/>
  <path d="M1052.18,83.99c-2.11-10.11-6.35-17.46-12.66-21.85-25.01-16.69-71.04,18.06-102.56,77.37-23.32,41.01-34.72,85.45-29.04,113.23,2.18,10.59,6.6,18.23,13.18,22.72,3.94,2.74,8.51,4.06,13.55,4.06l.02-.02c25.01,0,61.51-32.28,89.03-81.43h0c23.31-42.75,34.24-86.46,28.48-114.08ZM923.11,271.7c-5.65-3.85-9.49-10.56-11.41-19.95-5.46-26.67,5.75-69.79,28.56-109.89,25.5-47.99,60.24-79.66,84.46-79.66h0c4.71.01,9.03,1.21,12.81,3.72,5.36,3.73,9.02,10.16,10.89,19.1,5.44,26.12-5.55,69.57-28,110.72-31.95,57.03-75.59,91.1-97.31,75.96ZM1052.18,83.99c-2.11-10.11-6.35-17.46-12.66-21.85-25.01-16.69-71.04,18.06-102.56,77.37-23.32,41.01-34.72,85.45-29.04,113.23,2.18,10.59,6.6,18.23,13.18,22.72,3.94,2.74,8.51,4.06,13.55,4.06l.02-.02c25.01,0,61.51-32.28,89.03-81.43h0c23.31-42.75,34.24-86.46,28.48-114.08ZM923.11,271.7c-5.65-3.85-9.49-10.56-11.41-19.95-5.46-26.67,5.75-69.79,28.56-109.89,25.5-47.99,60.24-79.66,84.46-79.66h0c4.71.01,9.03,1.21,12.81,3.72,5.36,3.73,9.02,10.16,10.89,19.1,5.44,26.12-5.55,69.57-28,110.72-31.95,57.03-75.59,91.1-97.31,75.96ZM1052.18,83.99c-2.11-10.11-6.35-17.46-12.66-21.85-25.01-16.69-71.04,18.06-102.56,77.37-23.32,41.01-34.72,85.45-29.04,113.23,2.18,10.59,6.6,18.23,13.18,22.72,3.94,2.74,8.51,4.06,13.55,4.06l.02-.02c25.01,0,61.51-32.28,89.03-81.43h0c23.31-42.75,34.24-86.46,28.48-114.08ZM923.11,271.7c-5.65-3.85-9.49-10.56-11.41-19.95-5.46-26.67,5.75-69.79,28.56-109.89,25.5-47.99,60.24-79.66,84.46-79.66h0c4.71.01,9.03,1.21,12.81,3.72,5.36,3.73,9.02,10.16,10.89,19.1,5.44,26.12-5.55,69.57-28,110.72-31.95,57.03-75.59,91.1-97.31,75.96ZM1052.18,83.99c-2.11-10.11-6.35-17.46-12.66-21.85-25.01-16.69-71.04,18.06-102.56,77.37-23.32,41.01-34.72,85.45-29.04,113.23,2.18,10.59,6.6,18.23,13.18,22.72,3.94,2.74,8.51,4.06,13.55,4.06l.02-.02c25.01,0,61.51-32.28,89.03-81.43h0c23.31-42.75,34.24-86.46,28.48-114.08ZM923.11,271.7c-5.65-3.85-9.49-10.56-11.41-19.95-5.46-26.67,5.75-69.79,28.56-109.89,25.5-47.99,60.24-79.66,84.46-79.66h0c4.71.01,9.03,1.21,12.81,3.72,5.36,3.73,9.02,10.16,10.89,19.1,5.44,26.12-5.55,69.57-28,110.72-31.95,57.03-75.59,91.1-97.31,75.96ZM1052.18,83.99c-2.11-10.11-6.35-17.46-12.66-21.85-25.01-16.69-71.04,18.06-102.56,77.37-23.32,41.01-34.72,85.45-29.04,113.23,2.18,10.59,6.6,18.23,13.18,22.72,3.94,2.74,8.51,4.06,13.55,4.06l.02-.02c25.01,0,61.51-32.28,89.03-81.43h0c23.31-42.75,34.24-86.46,28.48-114.08ZM923.11,271.7c-5.65-3.85-9.49-10.56-11.41-19.95-5.46-26.67,5.75-69.79,28.56-109.89,25.5-47.99,60.24-79.66,84.46-79.66h0c4.71.01,9.03,1.21,12.81,3.72,5.36,3.73,9.02,10.16,10.89,19.1,5.44,26.12-5.55,69.57-28,110.72-31.95,57.03-75.59,91.1-97.31,75.96ZM1052.18,83.99c-2.11-10.11-6.35-17.46-12.66-21.85-25.01-16.69-71.04,18.06-102.56,77.37-23.32,41.01-34.72,85.45-29.04,113.23,2.18,10.59,6.6,18.23,13.18,22.72,3.94,2.74,8.51,4.06,13.55,4.06l.02-.02c25.01,0,61.51-32.28,89.03-81.43h0c23.31-42.75,34.24-86.46,28.48-114.08ZM923.11,271.7c-5.65-3.85-9.49-10.56-11.41-19.95-5.46-26.67,5.75-69.79,28.56-109.89,25.5-47.99,60.24-79.66,84.46-79.66h0c4.71.01,9.03,1.21,12.81,3.72,5.36,3.73,9.02,10.16,10.89,19.1,5.44,26.12-5.55,69.57-28,110.72-31.95,57.03-75.59,91.1-97.31,75.96ZM1101.93,28.25c-74.39-55.38-180.28-23.87-236.03,70.26-28.52,48.03-31.99,100.27-32.25,118.7l-22.94-3.5c.51-73.94,29.63-136.78,50.36-157.99.43-.43.67-1.07.64-1.72l-1.55-41.56c-.04-1.18-.89-2.11-1.93-2.11h-144.24c-.54,0-1.03.25-1.37.66t-.01.01c-.35.39-.56.94-.56,1.53v473.42c0,1.21.87,2.19,1.94,2.19h144.24v-.03c1.07,0,1.93-.98,1.93-2.19v-164.36c11.33,19.3,27.73,37.98,44.91,51,33.89,25.5,75.39,34.2,116.87,24.48,42.34-9.91,81.48-38.45,109.51-79.35,3.4-4.96,6.63-10.1,9.69-15.41,54.09-95.13,36.5-218.06-39.21-274.03ZM1021.15,392.77c-40.46,9.48-80.92,1.01-113.94-23.83-17.2-13.04-33.6-31.91-44.66-51.25-.92-1.61-1.81-3.22-2.65-4.83-.44-.85-1.32-1.27-2.18-1-.84.26-1.42,1.14-1.42,2.12v169.77h-140.38V14.77h140.46l1.42,38.42c-21.39,22.59-50.97,87.14-50.97,162.48,0,1.1.72,2.03,1.68,2.18l26.79,4.09c.56.08,1.12-.1,1.53-.53.43-.41.67-1.01.67-1.65,0-15.37,2.28-69.35,31.62-118.76,54.57-92.14,158.06-123.12,230.71-69.04,73.91,54.65,90.99,174.86,38.07,267.96-3.55,6.16-7.35,12.09-11.36,17.77-27.33,38.64-64.87,65.58-105.39,75.08ZM1039.52,62.14c-25.01-16.69-71.04,18.06-102.56,77.37-23.32,41.01-34.72,85.45-29.04,113.23,2.18,10.59,6.6,18.23,13.18,22.72,3.94,2.74,8.51,4.06,13.55,4.06l.02-.02c25.01,0,61.51-32.28,89.03-81.43h0c23.31-42.75,34.24-86.46,28.48-114.08-2.11-10.11-6.35-17.46-12.66-21.85ZM923.11,271.7c-5.65-3.85-9.49-10.56-11.41-19.95-5.46-26.67,5.75-69.79,28.56-109.89,25.5-47.99,60.24-79.66,84.46-79.66h0c4.71.01,9.03,1.21,12.81,3.72,5.36,3.73,9.02,10.16,10.89,19.1,5.44,26.12-5.55,69.57-28,110.72-31.95,57.03-75.59,91.1-97.31,75.96ZM1052.18,83.99c-2.11-10.11-6.35-17.46-12.66-21.85-25.01-16.69-71.04,18.06-102.56,77.37-23.32,41.01-34.72,85.45-29.04,113.23,2.18,10.59,6.6,18.23,13.18,22.72,3.94,2.74,8.51,4.06,13.55,4.06l.02-.02c25.01,0,61.51-32.28,89.03-81.43h0c23.31-42.75,34.24-86.46,28.48-114.08ZM923.11,271.7c-5.65-3.85-9.49-10.56-11.41-19.95-5.46-26.67,5.75-69.79,28.56-109.89,25.5-47.99,60.24-79.66,84.46-79.66h0c4.71.01,9.03,1.21,12.81,3.72,5.36,3.73,9.02,10.16,10.89,19.1,5.44,26.12-5.55,69.57-28,110.72-31.95,57.03-75.59,91.1-97.31,75.96ZM1052.18,83.99c-2.11-10.11-6.35-17.46-12.66-21.85-25.01-16.69-71.04,18.06-102.56,77.37-23.32,41.01-34.72,85.45-29.04,113.23,2.18,10.59,6.6,18.23,13.18,22.72,3.94,2.74,8.51,4.06,13.55,4.06l.02-.02c25.01,0,61.51-32.28,89.03-81.43h0c23.31-42.75,34.24-86.46,28.48-114.08ZM923.11,271.7c-5.65-3.85-9.49-10.56-11.41-19.95-5.46-26.67,5.75-69.79,28.56-109.89,25.5-47.99,60.24-79.66,84.46-79.66h0c4.71.01,9.03,1.21,12.81,3.72,5.36,3.73,9.02,10.16,10.89,19.1,5.44,26.12-5.55,69.57-28,110.72-31.95,57.03-75.59,91.1-97.31,75.96ZM1052.18,83.99c-2.11-10.11-6.35-17.46-12.66-21.85-25.01-16.69-71.04,18.06-102.56,77.37-23.32,41.01-34.72,85.45-29.04,113.23,2.18,10.59,6.6,18.23,13.18,22.72,3.94,2.74,8.51,4.06,13.55,4.06l.02-.02c25.01,0,61.51-32.28,89.03-81.43h0c23.31-42.75,34.24-86.46,28.48-114.08ZM923.11,271.7c-5.65-3.85-9.49-10.56-11.41-19.95-5.46-26.67,5.75-69.79,28.56-109.89,25.5-47.99,60.24-79.66,84.46-79.66h0c4.71.01,9.03,1.21,12.81,3.72,5.36,3.73,9.02,10.16,10.89,19.1,5.44,26.12-5.55,69.57-28,110.72-31.95,57.03-75.59,91.1-97.31,75.96ZM1052.18,83.99c-2.11-10.11-6.35-17.46-12.66-21.85-25.01-16.69-71.04,18.06-102.56,77.37-23.32,41.01-34.72,85.45-29.04,113.23,2.18,10.59,6.6,18.23,13.18,22.72,3.94,2.74,8.51,4.06,13.55,4.06l.02-.02c25.01,0,61.51-32.28,89.03-81.43h0c23.31-42.75,34.24-86.46,28.48-114.08ZM923.11,271.7c-5.65-3.85-9.49-10.56-11.41-19.95-5.46-26.67,5.75-69.79,28.56-109.89,25.5-47.99,60.24-79.66,84.46-79.66h0c4.71.01,9.03,1.21,12.81,3.72,5.36,3.73,9.02,10.16,10.89,19.1,5.44,26.12-5.55,69.57-28,110.72-31.95,57.03-75.59,91.1-97.31,75.96Z"/>
  <path d="M1386.02,200.56l-12.65-20.61c-.08-.14-.17-.25-.27-.35-1.33-1.43-2.09-3.34-2.16-5.41l-2.36-73.97c-.21-6.6-4.93-11.77-10.75-11.77h-9.34c-5.8,0-10.63,5.36-10.75,11.97l-1.36,73.92c-.03,2.06-.81,4.07-2.13,5.5-.11.11-.19.21-.27.35l-12.27,20.38c-2.02,2.28-3.19,5.41-3.19,8.66l-.21,99.83c-.02,3.27,1.08,6.33,3.1,8.63.01.02.03.03.04.05,2.03,2.31,4.74,3.58,7.61,3.58h.04l49.42-.23c2.87,0,5.48-1.3,7.4-3.4,2.05-2.22,3.33-5.36,3.33-8.81v-99.59c0-3.28-1.18-6.44-3.23-8.73ZM1385.35,308.88c0,4.3-3.07,7.82-6.86,7.82l-49.42.23h-.03c-1.84,0-3.57-.82-4.87-2.29-1.3-1.49-2.01-3.46-2.01-5.56l.21-99.84c.02-2.14.79-4.18,2.15-5.65.11-.11.19-.23.27-.35l12.27-20.38h-.03c1.98-2.23,3.14-5.29,3.19-8.45l1.36-73.91c.08-4.22,3.16-7.66,6.89-7.66h9.33c3.74,0,6.75,3.31,6.89,7.54l2.36,73.96c.11,3.15,1.24,6.09,3.23,8.29l12.64,20.61c.08.14.18.24.27.35,1.37,1.47,2.16,3.55,2.16,5.7v99.59ZM1386.02,200.56l-12.65-20.61c-.08-.14-.17-.25-.27-.35-1.33-1.43-2.09-3.34-2.16-5.41l-2.36-73.97c-.21-6.6-4.93-11.77-10.75-11.77h-9.34c-5.8,0-10.63,5.36-10.75,11.97l-1.36,73.92c-.03,2.06-.81,4.07-2.13,5.5-.11.11-.19.21-.27.35l-12.27,20.38c-2.02,2.28-3.19,5.41-3.19,8.66l-.21,99.83c-.02,3.27,1.08,6.33,3.1,8.63.01.02.03.03.04.05,2.03,2.31,4.74,3.58,7.61,3.58h.04l49.42-.23c2.87,0,5.48-1.3,7.4-3.4,2.05-2.22,3.33-5.36,3.33-8.81v-99.59c0-3.28-1.18-6.44-3.23-8.73ZM1385.35,308.88c0,4.3-3.07,7.82-6.86,7.82l-49.42.23h-.03c-1.84,0-3.57-.82-4.87-2.29-1.3-1.49-2.01-3.46-2.01-5.56l.21-99.84c.02-2.14.79-4.18,2.15-5.65.11-.11.19-.23.27-.35l12.27-20.38h-.03c1.98-2.23,3.14-5.29,3.19-8.45l1.36-73.91c.08-4.22,3.16-7.66,6.89-7.66h9.33c3.74,0,6.75,3.31,6.89,7.54l2.36,73.96c.11,3.15,1.24,6.09,3.23,8.29l12.64,20.61c.08.14.18.24.27.35,1.37,1.47,2.16,3.55,2.16,5.7v99.59ZM1386.02,200.56l-12.65-20.61c-.08-.14-.17-.25-.27-.35-1.33-1.43-2.09-3.34-2.16-5.41l-2.36-73.97c-.21-6.6-4.93-11.77-10.75-11.77h-9.34c-5.8,0-10.63,5.36-10.75,11.97l-1.36,73.92c-.03,2.06-.81,4.07-2.13,5.5-.11.11-.19.21-.27.35l-12.27,20.38c-2.02,2.28-3.19,5.41-3.19,8.66l-.21,99.83c-.02,3.27,1.08,6.33,3.1,8.63.01.02.03.03.04.05,2.03,2.31,4.74,3.58,7.61,3.58h.04l49.42-.23c2.87,0,5.48-1.3,7.4-3.4,2.05-2.22,3.33-5.36,3.33-8.81v-99.59c0-3.28-1.18-6.44-3.23-8.73ZM1385.35,308.88c0,4.3-3.07,7.82-6.86,7.82l-49.42.23h-.03c-1.84,0-3.57-.82-4.87-2.29-1.3-1.49-2.01-3.46-2.01-5.56l.21-99.84c.02-2.14.79-4.18,2.15-5.65.11-.11.19-.23.27-.35l12.27-20.38h-.03c1.98-2.23,3.14-5.29,3.19-8.45l1.36-73.91c.08-4.22,3.16-7.66,6.89-7.66h9.33c3.74,0,6.75,3.31,6.89,7.54l2.36,73.96c.11,3.15,1.24,6.09,3.23,8.29l12.64,20.61c.08.14.18.24.27.35,1.37,1.47,2.16,3.55,2.16,5.7v99.59ZM1386.02,200.56l-12.65-20.61c-.08-.14-.17-.25-.27-.35-1.33-1.43-2.09-3.34-2.16-5.41l-2.36-73.97c-.21-6.6-4.93-11.77-10.75-11.77h-9.34c-5.8,0-10.63,5.36-10.75,11.97l-1.36,73.92c-.03,2.06-.81,4.07-2.13,5.5-.11.11-.19.21-.27.35l-12.27,20.38c-2.02,2.28-3.19,5.41-3.19,8.66l-.21,99.83c-.02,3.27,1.08,6.33,3.1,8.63.01.02.03.03.04.05,2.03,2.31,4.74,3.58,7.61,3.58h.04l49.42-.23c2.87,0,5.48-1.3,7.4-3.4,2.05-2.22,3.33-5.36,3.33-8.81v-99.59c0-3.28-1.18-6.44-3.23-8.73ZM1385.35,308.88c0,4.3-3.07,7.82-6.86,7.82l-49.42.23h-.03c-1.84,0-3.57-.82-4.87-2.29-1.3-1.49-2.01-3.46-2.01-5.56l.21-99.84c.02-2.14.79-4.18,2.15-5.65.11-.11.19-.23.27-.35l12.27-20.38h-.03c1.98-2.23,3.14-5.29,3.19-8.45l1.36-73.91c.08-4.22,3.16-7.66,6.89-7.66h9.33c3.74,0,6.75,3.31,6.89,7.54l2.36,73.96c.11,3.15,1.24,6.09,3.23,8.29l12.64,20.61c.08.14.18.24.27.35,1.37,1.47,2.16,3.55,2.16,5.7v99.59ZM1386.02,200.56l-12.65-20.61c-.08-.14-.17-.25-.27-.35-1.33-1.43-2.09-3.34-2.16-5.41l-2.36-73.97c-.21-6.6-4.93-11.77-10.75-11.77h-9.34c-5.8,0-10.63,5.36-10.75,11.97l-1.36,73.92c-.03,2.06-.81,4.07-2.13,5.5-.11.11-.19.21-.27.35l-12.27,20.38c-2.02,2.28-3.19,5.41-3.19,8.66l-.21,99.83c-.02,3.27,1.08,6.33,3.1,8.63.01.02.03.03.04.05,2.03,2.31,4.74,3.58,7.61,3.58h.04l49.42-.23c2.87,0,5.48-1.3,7.4-3.4,2.05-2.22,3.33-5.36,3.33-8.81v-99.59c0-3.28-1.18-6.44-3.23-8.73ZM1385.35,308.88c0,4.3-3.07,7.82-6.86,7.82l-49.42.23h-.03c-1.84,0-3.57-.82-4.87-2.29-1.3-1.49-2.01-3.46-2.01-5.56l.21-99.84c.02-2.14.79-4.18,2.15-5.65.11-.11.19-.23.27-.35l12.27-20.38h-.03c1.98-2.23,3.14-5.29,3.19-8.45l1.36-73.91c.08-4.22,3.16-7.66,6.89-7.66h9.33c3.74,0,6.75,3.31,6.89,7.54l2.36,73.96c.11,3.15,1.24,6.09,3.23,8.29l12.64,20.61c.08.14.18.24.27.35,1.37,1.47,2.16,3.55,2.16,5.7v99.59ZM1386.02,200.56l-12.65-20.61c-.08-.14-.17-.25-.27-.35-1.33-1.43-2.09-3.34-2.16-5.41l-2.36-73.97c-.21-6.6-4.93-11.77-10.75-11.77h-9.34c-5.8,0-10.63,5.36-10.75,11.97l-1.36,73.92c-.03,2.06-.81,4.07-2.13,5.5-.11.11-.19.21-.27.35l-12.27,20.38c-2.02,2.28-3.19,5.41-3.19,8.66l-.21,99.83c-.02,3.27,1.08,6.33,3.1,8.63.01.02.03.03.04.05,2.03,2.31,4.74,3.58,7.61,3.58h.04l49.42-.23c2.87,0,5.48-1.3,7.4-3.4,2.05-2.22,3.33-5.36,3.33-8.81v-99.59c0-3.28-1.18-6.44-3.23-8.73ZM1385.35,308.88c0,4.3-3.07,7.82-6.86,7.82l-49.42.23h-.03c-1.84,0-3.57-.82-4.87-2.29-1.3-1.49-2.01-3.46-2.01-5.56l.21-99.84c.02-2.14.79-4.18,2.15-5.65.11-.11.19-.23.27-.35l12.27-20.38h-.03c1.98-2.23,3.14-5.29,3.19-8.45l1.36-73.91c.08-4.22,3.16-7.66,6.89-7.66h9.33c3.74,0,6.75,3.31,6.89,7.54l2.36,73.96c.11,3.15,1.24,6.09,3.23,8.29l12.64,20.61c.08.14.18.24.27.35,1.37,1.47,2.16,3.55,2.16,5.7v99.59ZM1579.67,488.87l-50.85-171.18L1436.62,7.32c-.27-.9-1.02-1.5-1.85-1.5h-158.93c-.55,0-1.04.25-1.4.68-.19.23-.35.5-.44.82l-.07.23-92.14,310.14-50.85,171.18c-.2.67-.1,1.41.26,1.99.36.57.95.92,1.58.92h153.62c.89,0,1.65-.68,1.88-1.65l18.69-82.63h96.6l18.69,82.63c.23.97,1,1.65,1.88,1.65h153.69c.63,0,1.21-.35,1.57-.92.38-.58.47-1.32.27-1.99ZM1425.65,487.37l-18.69-82.63c-.23-.97-1-1.65-1.88-1.65h-99.61c-.89,0-1.65.68-1.88,1.65l-18.69,82.63h-149.42l50.41-169.68L1277.23,10.21h156.14l91.34,307.48,50.4,169.68h-149.46ZM1373.37,179.95c-.08-.14-.17-.25-.27-.35-1.33-1.43-2.09-3.34-2.16-5.41l-2.36-73.97c-.21-6.6-4.93-11.77-10.75-11.77h-9.34c-5.8,0-10.63,5.36-10.75,11.97l-1.36,73.92c-.03,2.06-.81,4.07-2.13,5.5-.11.11-.19.21-.27.35l-12.27,20.38c-2.02,2.28-3.19,5.41-3.19,8.66l-.21,99.83c-.02,3.27,1.08,6.33,3.1,8.63.01.02.03.03.04.05,2.03,2.31,4.74,3.58,7.61,3.58h.04l49.42-.23c2.87,0,5.48-1.3,7.4-3.4,2.05-2.22,3.33-5.36,3.33-8.81v-99.59c0-3.28-1.18-6.44-3.23-8.73l-12.65-20.61ZM1385.35,308.88c0,4.3-3.07,7.82-6.86,7.82l-49.42.23h-.03c-1.84,0-3.57-.82-4.87-2.29-1.3-1.49-2.01-3.46-2.01-5.56l.21-99.84c.02-2.14.79-4.18,2.15-5.65.11-.11.19-.23.27-.35l12.27-20.38h-.03c1.98-2.23,3.14-5.29,3.19-8.45l1.36-73.91c.08-4.22,3.16-7.66,6.89-7.66h9.33c3.74,0,6.75,3.31,6.89,7.54l2.36,73.96c.11,3.15,1.24,6.09,3.23,8.29l12.64,20.61c.08.14.18.24.27.35,1.37,1.47,2.16,3.55,2.16,5.7v99.59ZM1386.02,200.56l-12.65-20.61c-.08-.14-.17-.25-.27-.35-1.33-1.43-2.09-3.34-2.16-5.41l-2.36-73.97c-.21-6.6-4.93-11.77-10.75-11.77h-9.34c-5.8,0-10.63,5.36-10.75,11.97l-1.36,73.92c-.03,2.06-.81,4.07-2.13,5.5-.11.11-.19.21-.27.35l-12.27,20.38c-2.02,2.28-3.19,5.41-3.19,8.66l-.21,99.83c-.02,3.27,1.08,6.33,3.1,8.63.01.02.03.03.04.05,2.03,2.31,4.74,3.58,7.61,3.58h.04l49.42-.23c2.87,0,5.48-1.3,7.4-3.4,2.05-2.22,3.33-5.36,3.33-8.81v-99.59c0-3.28-1.18-6.44-3.23-8.73ZM1385.35,308.88c0,4.3-3.07,7.82-6.86,7.82l-49.42.23h-.03c-1.84,0-3.57-.82-4.87-2.29-1.3-1.49-2.01-3.46-2.01-5.56l.21-99.84c.02-2.14.79-4.18,2.15-5.65.11-.11.19-.23.27-.35l12.27-20.38h-.03c1.98-2.23,3.14-5.29,3.19-8.45l1.36-73.91c.08-4.22,3.16-7.66,6.89-7.66h9.33c3.74,0,6.75,3.31,6.89,7.54l2.36,73.96c.11,3.15,1.24,6.09,3.23,8.29l12.64,20.61c.08.14.18.24.27.35,1.37,1.47,2.16,3.55,2.16,5.7v99.59ZM1386.02,200.56l-12.65-20.61c-.08-.14-.17-.25-.27-.35-1.33-1.43-2.09-3.34-2.16-5.41l-2.36-73.97c-.21-6.6-4.93-11.77-10.75-11.77h-9.34c-5.8,0-10.63,5.36-10.75,11.97l-1.36,73.92c-.03,2.06-.81,4.07-2.13,5.5-.11.11-.19.21-.27.35l-12.27,20.38c-2.02,2.28-3.19,5.41-3.19,8.66l-.21,99.83c-.02,3.27,1.08,6.33,3.1,8.63.01.02.03.03.04.05,2.03,2.31,4.74,3.58,7.61,3.58h.04l49.42-.23c2.87,0,5.48-1.3,7.4-3.4,2.05-2.22,3.33-5.36,3.33-8.81v-99.59c0-3.28-1.18-6.44-3.23-8.73ZM1385.35,308.88c0,4.3-3.07,7.82-6.86,7.82l-49.42.23h-.03c-1.84,0-3.57-.82-4.87-2.29-1.3-1.49-2.01-3.46-2.01-5.56l.21-99.84c.02-2.14.79-4.18,2.15-5.65.11-.11.19-.23.27-.35l12.27-20.38h-.03c1.98-2.23,3.14-5.29,3.19-8.45l1.36-73.91c.08-4.22,3.16-7.66,6.89-7.66h9.33c3.74,0,6.75,3.31,6.89,7.54l2.36,73.96c.11,3.15,1.24,6.09,3.23,8.29l12.64,20.61c.08.14.18.24.27.35,1.37,1.47,2.16,3.55,2.16,5.7v99.59ZM1386.02,200.56l-12.65-20.61c-.08-.14-.17-.25-.27-.35-1.33-1.43-2.09-3.34-2.16-5.41l-2.36-73.97c-.21-6.6-4.93-11.77-10.75-11.77h-9.34c-5.8,0-10.63,5.36-10.75,11.97l-1.36,73.92c-.03,2.06-.81,4.07-2.13,5.5-.11.11-.19.21-.27.35l-12.27,20.38c-2.02,2.28-3.19,5.41-3.19,8.66l-.21,99.83c-.02,3.27,1.08,6.33,3.1,8.63.01.02.03.03.04.05,2.03,2.31,4.74,3.58,7.61,3.58h.04l49.42-.23c2.87,0,5.48-1.3,7.4-3.4,2.05-2.22,3.33-5.36,3.33-8.81v-99.59c0-3.28-1.18-6.44-3.23-8.73ZM1385.35,308.88c0,4.3-3.07,7.82-6.86,7.82l-49.42.23h-.03c-1.84,0-3.57-.82-4.87-2.29-1.3-1.49-2.01-3.46-2.01-5.56l.21-99.84c.02-2.14.79-4.18,2.15-5.65.11-.11.19-.23.27-.35l12.27-20.38h-.03c1.98-2.23,3.14-5.29,3.19-8.45l1.36-73.91c.08-4.22,3.16-7.66,6.89-7.66h9.33c3.74,0,6.75,3.31,6.89,7.54l2.36,73.96c.11,3.15,1.24,6.09,3.23,8.29l12.64,20.61c.08.14.18.24.27.35,1.37,1.47,2.16,3.55,2.16,5.7v99.59ZM1386.02,200.56l-12.65-20.61c-.08-.14-.17-.25-.27-.35-1.33-1.43-2.09-3.34-2.16-5.41l-2.36-73.97c-.21-6.6-4.93-11.77-10.75-11.77h-9.34c-5.8,0-10.63,5.36-10.75,11.97l-1.36,73.92c-.03,2.06-.81,4.07-2.13,5.5-.11.11-.19.21-.27.35l-12.27,20.38c-2.02,2.28-3.19,5.41-3.19,8.66l-.21,99.83c-.02,3.27,1.08,6.33,3.1,8.63.01.02.03.03.04.05,2.03,2.31,4.74,3.58,7.61,3.58h.04l49.42-.23c2.87,0,5.48-1.3,7.4-3.4,2.05-2.22,3.33-5.36,3.33-8.81v-99.59c0-3.28-1.18-6.44-3.23-8.73ZM1385.35,308.88c0,4.3-3.07,7.82-6.86,7.82l-49.42.23h-.03c-1.84,0-3.57-.82-4.87-2.29-1.3-1.49-2.01-3.46-2.01-5.56l.21-99.84c.02-2.14.79-4.18,2.15-5.65.11-.11.19-.23.27-.35l12.27-20.38h-.03c1.98-2.23,3.14-5.29,3.19-8.45l1.36-73.91c.08-4.22,3.16-7.66,6.89-7.66h9.33c3.74,0,6.75,3.31,6.89,7.54l2.36,73.96c.11,3.15,1.24,6.09,3.23,8.29l12.64,20.61c.08.14.18.24.27.35,1.37,1.47,2.16,3.55,2.16,5.7v99.59Z"/>
  <g>
    <path d="M1637.45,551.9l-.64-1.98-.11.16c-3.76-11.17-22.71-75.92-44.4-150.04-7.78-26.58-15.94-54.47-24.12-82.35-14.02-47.81-28.1-95.6-40.4-136.79-10.66-35.66-18.7-62.08-24.6-80.76-8.35-26.51-10.39-31.43-11.51-32.28-18.09-20.58-36.2-41.15-54.32-61.72h0c-1.44-1.39-12-1.9-111.32-1.24-24.51.17-47.67.32-49.59.06l-.08-.02c-.5-.13-.96-.24-1.91,1.56-.15.29-.32.64-.51,1.05-1.88,4.14-5.38,14.49-13.03,39.92-7.35,24.43-16.18,55.08-23.97,82.12-6.69,23.23-13.08,45.39-15.55,53.13-10.59-40.49-37.45-69.76-63.46-98.09-2.25-2.45-4.5-4.91-6.74-7.36-32.83-45.68-76.03-72.97-121.66-76.85-45.4-3.86-90.48,14.72-130.39,53.75-4.19-4.76-8.37-9.51-12.56-14.27-4.31-4.91-8.63-9.81-12.94-14.71-2.98-3.39-5.95-6.79-8.96-10.17l-.08-.08c-.58-.53-1.13-1.24-1.7-1.98-1.14-1.48-2.31-3.01-4.11-3.51l-.59-.17-.27.29c-2.49.57-23.26.21-45.23-.17-56.42-.98-87.92-1.1-97.77.93-.98.2-1.74.42-2.3.66t-.01.01c-.38.17-.66.35-.84.54-.31.32-.46.72-.44,1.07v56.45c-8.42-9.54-23.61-26.8-34.29-38.95-5.8-6.59-10.27-11.67-11.62-13.19l-.07-.08c-.84-.76-1.6-1.74-2.4-2.77-1.43-1.84-2.91-3.74-4.99-4.59l-.18-.07h-145.4l-.05.95c0,.05,0,.09-.01.14-.48,9.62-.93,19.27-1.35,28.88-.78,17.46-1.47,34.81-2.15,51.79-2.94,73.21-5.71,142.59-13.73,193.81-.11-12.25.19-35.58.5-59.86,1.09-84,1.59-148.57-2.48-152.5-.16-.15-.32-.25-.47-.31l-15.92-18.1c-10.01-11.37-20.02-22.74-30.03-34.11-2.79-3.18-5.58-6.37-8.39-9.54h-.02c-1.38-1.25-11.19-1.76-101.11-1.16-22.09.15-42.98.29-45.03.06l-.25-.05c-.34-.03-.69.09-.96.34-.17.16-.34.48-.49.96-.33,1.02-.62,2.76-.86,5.23-1.7,16.99-1.59,68.67-.73,158.99.32,32.93.62,64.25.27,72.47-8.06-9.13-16.1-18.28-24.14-27.42-6.59-7.49-13.17-14.97-19.76-22.45l-.08-.08c-.54-.48-1.04-1.13-1.57-1.81-1.15-1.49-2.46-3.18-4.56-3.41h-37.4s.76-2.01.76-2.01c11.44-29.86,38.22-99.79,21.24-116.53-8.57-9.74-17.14-19.49-25.72-29.22-7.54-8.58-15.09-17.16-22.65-25.73l-.07-.08c-.44-.41-.86-.94-1.3-1.5-1.08-1.38-2.31-2.95-4.38-3.1H-17.28c-1.37-.04-2.63.75-3.37,2.11-.84,1.52-.8,3.37.09,4.7C-13.34,32.42-.58,62.78,8.85,96.28c11,39.11,14.22,70.72,9.08,89.03-5.86,13.83-61.45,9.98-91.33,7.91-6.48-.45-12.08-.83-16.39-1.01-2.16,0-3.93,1.94-3.93,4.33v58.57c.09,2.16,1.44,3.5,2.62,4.69.52.51,1.01,1,1.37,1.53l.07.09c2.33,2.65,4.66,5.3,6.99,7.94,3.35,3.8,6.69,7.6,10.04,11.4,3.25,3.7,6.49,7.39,9.74,11.08-.87,8.97-1.04,17.58-.61,25.85,3.34,64.69,43.75,109.31,82.97,152.62,6.23,6.88,12.66,13.98,18.8,21.01,29.79,37.07,79.34,61.39,132.55,65.05,49.54,3.41,96.06-11.73,127.63-41.54l.31-.29v-94.33c8.46,29.62,25.15,48.1,42.75,67.57,3.42,3.78,6.95,7.7,10.46,11.73l16.73,19.01c17.28,26.66,45.54,42.12,77.54,42.41.31.01.62.01.93.01,34.64,0,67.35-17.68,87.89-47.48,4.97,5.64,9.93,11.28,14.9,16.92,5.24,5.97,10.49,11.93,15.74,17.88.24,1.94,1.75,3.42,3.57,3.42h144.07c.51.16,1.02.09,1.48-.21,2.92-1.91,3.07-15.71,2.3-44.01-.14-5.43-.29-11-.24-13.91,16.58,18.85,33.17,37.7,49.77,56.54.24,1.94,1.74,3.41,3.55,3.41h144.24c1.99,0,3.6-1.78,3.6-3.96v-155.52c27.85,40.05,67.14,65.12,110.98,70.72,42.31,5.39,84.67-8.06,119.64-37.93l-18.37,61.84c-.38,1.2-.02,2.59.86,3.42,4.23,4.82,40.28,45.78,54.28,61.67.11.92.53,1.78,1.19,2.42.68.65,1.52.96,2.37.97h153.62c1.67,0,3.11-1.23,3.5-3l18.39-81.28h53.16c.19.82.49,2.25.8,3.75,2.58,12.42,3.59,15.6,4.81,16.28,6.22,7.07,41.24,46.85,53.48,60.76.39,2.1,1.89,3.5,3.62,3.48h153.63c1.07.06,2.07-.48,2.78-1.43.82-1.08,1.08-2.54.67-3.79ZM1275.83,8.01h158.93l91.98,309.68,51.05,171.88h-153.66l-19.06-84.28h-99.61l-19.06,84.28h-153.62l51.06-171.88L1275.83,8.01ZM713.96,12.53h144.26l1.55,41.56c-20.61,21.07-51,85.46-51,161.55l26.78,4.09c0-14.05,2.06-69.66,31.94-119.99,55.12-93.06,158.67-125.25,233.36-69.66,75.23,55.61,92.22,176.77,38.65,271.01-3.32,5.77-6.83,11.31-10.51,16.6-56.66,81.66-152.72,105.82-222.87,53.06-17.48-13.24-34.51-32.72-45.9-53.06-.7-1.24-1.37-2.48-2.02-3.72v171.98h-144.24V12.53ZM513.04,12.53h144.24v471.6h-144.23l-1.55-41.56c11.93-18.87,31.61-67.79,44.18-124.88,2.63-11.94,4.95-24.23,6.82-36.67l-25.76-2.92c-2.24,13.83-4.77,27.03-7.57,39.59-25.55,114.49-73.95,175.81-136.16,175.81-69.04,0-101.49-55.02-101.49-153.94V12.53h144.25v327.03c0,39.79,4.63,61.45,22.15,61.45,13.75,0,25.4-32.25,34.39-83.32,13.24-75.18,20.73-191.18,20.73-305.16ZM240.55,450.5c0,.72-.32,1.39-.84,1.82-32.63,25.52-72.21,39.02-114.43,39.02v.02c-98.59,0-179.65-76.69-186.86-173.67-.35-4.65-.53-9.35-.53-14.09,0-23.79,10.94-38.93,17.32-46.37h-45.28c-1.06,0-1.93-.99-1.93-2.2v-58.53c0-1.22.87-2.2,1.93-2.2,11.66,0,104.15,11.09,109.63-8.37C31.82,142.46-3.98,43.96-19.18,19.61c-.41-.67-.48-1.55-.14-2.29.33-.73,1-1.2,1.72-1.2h186.79c1.07,0,1.94.99,1.94,2.2,0,69.66-58.99,175.95-58.74,175.95h126.21c1.07,0,1.93.98,1.93,2.2v58.53c0,1.21-.86,2.2-1.93,2.2H89.67c-2.45,1.66-9.13,9.94-11.08,19.93-1.45,7.44,0,14.08,4.35,19.73,13.79,18.46,71.5,11.41,89.83,6.91,21.98-5.2,43.9-12.26,65.18-20.99.6-.24,1.25-.15,1.77.27.52.41.83,1.08.83,1.81v165.64ZM288.85,335.52l-11.03-12.53h11.03v12.53Z"/>
    <path d="M1038.54,64.03c-23.7-15.81-68.52,17.57-99.94,76.67-32.98,57.94-39.67,117.07-16.49,132.87,22.66,15.81,67.49-18.73,99.95-76.67,31.94-58.53,39.15-117.07,16.48-132.87Z"/>
    <path d="M1371.8,181.2c-1.68-1.82-2.68-4.3-2.76-6.94l-2.37-73.96c-.17-5.38-4.06-9.65-8.81-9.65h-9.34c-4.8,0-8.71,4.35-8.82,9.81l-1.36,73.92c-.05,2.68-1.04,5.21-2.75,7.06l-12.38,20.57c-1.74,1.9-2.74,4.5-2.74,7.24l-.22,99.83c-.01,5.56,3.95,10.06,8.85,10.05l49.42-.23c4.86-.02,8.79-4.5,8.79-10.02h0v-99.59c0-2.76-1-5.39-2.77-7.29l-12.75-20.79Z"/>
  </g>
  <path d="M125.29,493.63c-104.44,0-189.4-85.24-189.4-190.03,0-16.34,4.96-31.15,14.78-44.11h-40.74c-2.17,0-3.94-2-3.94-4.47v-58.53c0-2.47,1.76-4.47,3.94-4.47s6.5.33,12.61.79c22.52,1.68,91.06,6.82,95.11-7.56,5.15-18.26,1.93-49.86-9.07-88.95C-.84,62.85-13.59,32.51-20.8,20.94c-.85-1.36-.97-3.15-.28-4.64.68-1.49,2.01-2.42,3.49-2.42h186.8c2.18,0,3.94,2,3.94,4.47,0,57.68-39.34,139.47-57.23,173.67h122.71c2.17,0,3.94,2,3.94,4.47v58.53c0,2.47-1.76,4.47-3.94,4.47H90.3c-2.4,2.03-8.04,9.46-9.74,18.14-1.31,6.7,0,12.67,3.9,17.76,12.49,16.73,67.19,11.26,87.9,6.18,21.9-5.18,43.74-12.22,64.92-20.9,1.2-.5,2.55-.29,3.6.55,1.04.83,1.67,2.2,1.67,3.65v165.64c0,1.47-.64,2.85-1.71,3.68-32.98,25.8-72.93,39.42-115.58,39.42h.03ZM-44.79,254.95c.8,0,1.53.54,1.84,1.39.31.85.15,1.82-.41,2.47-11.11,12.97-16.75,28.04-16.75,44.79,0,102.27,83.17,185.48,185.4,185.48,41.82,0,81-13.35,113.29-38.62l-.03-165.6c-21.28,8.84-43.3,15.93-65.36,21.14-11.94,2.94-76.01,13.43-91.76-7.65-4.76-6.2-6.38-13.52-4.78-21.7,2.12-10.87,9.35-19.58,12.02-21.39.31-.21.67-.32,1.03-.32h148.92l-.07-58.46-126.15.07c-.72,0-1.39-.44-1.75-1.15-.59-1.17-.35-1.62.96-4.11,51.9-98.64,57.51-153.82,57.51-172.96l-186.73.08C-10.17,30.16,2.83,61.03,12.37,94.92c14.42,51.24,12.9,78.16,9.07,91.72-4.4,15.61-50.28,14.38-99.19,10.71-5.8-.44-10.38-.77-12.34-.77l.07,58.46,45.21-.08h.03Z"/>
</svg>