<!-- <svg id="loader-svg" xmlns="http://www.w3.org/2000/svg" viewBox="0 0 174.25 246.47">
  <defs>
    <clipPath id="reveal-clip">
      <rect id="reveal-rect" x="0" y="246.47" width="174.25" height="246.47" />
    </clipPath>
  </defs>
  <g clip-path="url(#reveal-clip)" fill="#216639">
    <path class="cls-1" d="M160.65,72.49c-2.17-2.34-9.05-8.38-11.99-8.52-.75-.03-1.48-.28-1.27.77,9.09,8.1,16.21,18.67,18.5,30.76l-6.6-12.65c-3.66-5.61-7.92-10.65-13.16-14.84-3.38-2.7-6.62-5.63-11.24-5.51-.82.85,2.74,6.21,3.5,7.25,1.52,2.1,4.87,4.7,6.02,6.48.4.61.62.99.48,1.77-.34.32-8.24-.7-9.22-1.03-3.58-1.21-3.49-.88-7-1.5-1.41-.25-2.94-1.96-4.78-1.47,1.21,8.32,3.6,16.52,3,25-1.26.37-1.24-1.08-1.36-1.88-.79-5.34-.85-9.59-2.62-14.89-1.78-5.37-4.44-13.01-11.03-12.97,2.59,7.08,6.45,14.44,5.26,22.24-1.77-4.05-2.16-8.65-3.73-12.77-1.89-4.98-6.67-12.28-10.26-16.24-.57-.62-3.43-3.84-4.26-2.99-.03,7.16,3.68,13.7,5.5,20.5-3.27-4.18-5.96-10.03-7.64-15.11-2.3-6.96-2.42-9.3-5.95-16.05-.58-1.12-2.74-7.83-3.16-7.83-2.47,5.54-5.49,10.49-9.24,15.25-.02,16.7,3.47,30.29,14.48,43,8.84,10.22,20.68,15.06,29.26,25.23,6.33-8.38,9.99-20.26,9.3-30.78-.14-2.12-.5-4.25-.75-6.36-.28-2.33-.57-4.64-.95-6.95-.04-.28-.09-.56-.03-.83.23-1.13,1.93-.78,2.67-.48,1.67.66,2.38,2.54,2.66,4.18.9,5.39-.87,11.41,1.95,16.38,6.33,11.14,20.76,12.65,31.05,18.45,1.03.58,5.12,4.15,5.85,3.4,1.42-17.25-1.11-35.87-13.24-49.01ZM86.9,76l7.48,16c-4.5-3.95-6.91-10.13-7.48-16ZM151.39,84.5c.9-.92,4.21,4.06,4.58,4.67,1.64,2.66,3.29,6.18,3.41,9.33l-7.99-14Z"/>
    <path class="cls-1" d="M94.4,119.5c1.29.26.87-.27,1.25-.97.81-1.5,2.39-7.55,2.71-7.81,1.05-.82,2.93.89,2.99,1.99.13,2.49-1.96,9.97-2.82,12.67-1.05,3.28-2.4,6.43-4.09,9.42l.95.69c4.06-6.06,6.79-12.89,8.53-19.98.61-.52,3.33.83,3.73,1.49,1.11,1.81-2.93,13.91-4.02,16.48-.73,1.71-1.73,3.73-2.65,5.35-1.39,2.46-3.42,4.58-4.58,7.16,7.48-6.16,11.27-16.09,14.5-25,1.83-.02,4.09,1.6,3.9,3.62s-2.38,8.03-3.32,10.21c-4.82,11.23-15.44,19.63-24.27,27.63-8.54-9.01-18.95-16.39-23.83-28.21-1.38-3.35-2.29-6.99-3.39-10.44.32-1.63,12.86-9.68,15.16-11.8,4.4-4.06,7.12-9.52,11.02-13.99l8.49,8.96-.27,12.52Z"/>
    <path class="cls-1" d="M95.9,187c4.62-4.98,5.89-12.43,8.75-18.5,1.05-.24,3.25,3.97,3.15,5.12-.23,2.59-3.68,10.38-4.98,13.05l-5.92,10.32c2.28-1.7,4.07-4.22,5.7-6.55,1.38-1.98,6.67-12.32,7.28-12.72,1.04-.69,2.3,1.28,2.42,2.12.63,4.32-4.67,13.49-7.42,16.88l-17.24,16.78-1.27-.75c-8.71-10.05-22.91-18.46-23.88-32.91,5.04-7.24,9.3-14.92,13.15-22.84,4.93,3.42,8.29,8.4,12.01,12.97,3.42-4.77,7.25-9.5,11.95-12.97.71.14,2.41,3.61,2.59,4.45.63,2.88-2.52,13.56-3.53,17.04-.83,2.85-2.26,5.54-2.75,8.49Z"/>
    <path class="cls-1" d="M73.89,62c-1.04,5.71-3.53,11.05-6.5,15.99.86.73,4.38-3.07,4.99-3.76.47-.53,2.66-4.63,3.51-3.74.61,4.8,1.29,9.68,3.06,14.19,1.17,2.97,4.82,7.47,4.22,10.34-.51,2.44-4.57,8.7-6.27,10.74-5.28,6.29-13.21,10.02-19.25,15.25-1.79,1.56-3.12,3.56-5.01,4.98-1.3-.28-5.75-13.46-6.39-15.61-3.32-11.1-4.03-17.1-1.23-28.5.47-1.93,1.68-6.89,3.22-7.78l11.14-3.6c-5.16,8.39-8.94,20.87-8.5,30.75.03.61-.38,1.86.49,1.74,1.38-11.27,4.79-23.4,11.6-32.66,2.73-3.71,6.35-7.23,10.91-8.34ZM60.89,108.5c5.92-1.97,10.55-7.45,12.99-12.99-4.02,4.75-8.24,8.98-12.99,12.99Z"/>
    <path class="cls-1" d="M13.34,174.94l-1.41.03c-3.64-11.15-6.24-22.9-5.56-34.74.24-4.24,2.09-17.64,5.25-20.25.73-.6,2.94-1.48,3.26-.21.09.36-1.63,5.9-1.86,7.11-1.06,5.6-2.37,12.76-2.13,18.37.03.61-.38,1.86.5,1.74,1.01-7.99,3.09-16.72,6-24.26,1.05-2.74,1.86-5.9,4.77-7.23,1.05-.22.81.5.74,1.24-.23,2.62-2.69,7.59-3.36,10.64-.4,1.82-.96,4.56-1.13,6.37-.06.65-.42,3.11.49,3.24,1.85-7.53,4.75-17.81,10.24-23.51,3.17-3.29,8.02-5.29,10.52-9.47.66,0,2.84,8.98,3.42,10.57s2.05,3.24,2.3,4.7c2.33,13.57-12.93,32.49-21.22,42.23-3.67,4.31-8.86,7.72-10.81,13.43ZM28.89,125c-1.37-.31-.85.42-1.24.99-2.19,3.28-3.18,6.5-2.76,10.5l3.99-11.49Z"/>
    <path class="cls-1" d="M145.72,113.18c2.22,2.21,5.7,9.25,6.92,12.33,1.61,4.05,2.38,8.37,3.76,12.49.86.13.53-1.19.49-1.73-.54-6.58-3.24-13.67-5-20.01-.19-1.82,3.05.47,3.46,1.05,1.68,2.41,4.92,13.77,5.81,17.19,1.04,3.99,1.94,8.38,2.25,12.5l.52-4.77c-.76-7.56-1.93-15.12-4.01-22.45,3.23-2.62,5.45,3.72,6.24,6.22,2.6,8.24,2.75,20.62,1.68,29.19-.31,2.5-3.83,19.19-5.19,19.81-.36.16-.95.14-1.29-.3-1.07-1.4-2.02-4.12-3.47-5.94-9.94-12.4-22.02-21.62-26.96-38.04-3.01-9.99-1.01-10.77,1.99-19.45.61-1.76,1.03-5.59,1.72-6.78.5-.85.58-.27,1.01,0,1.63,1.07,3.83,4.01,5.51,5.49,1.28,1.13,3.37,2,4.56,3.19ZM146.89,125l-.99.24,4.49,11.76c.51-4.38-1.82-8.18-3.5-12Z"/>
    <path class="cls-1" d="M39.89,62.5c-1.83,5.62-5.92,10.12-9.99,14.25-.5,1.2,3.66.8,4.27.76,1.35-.09,7.61-1.85,7.72-.27-1.78,3.29-2.83,7.77-3.01,11.48-.24,5.09,1.46,5.89-1.27,10.73-5.73,10.16-18.16,12.58-28.05,16.95-1.54.39-7.56,5.31-8.4,5.09-.66-.18-.72-1.14-.79-1.72-1.5-13.14,1.62-30.48,9.01-41.54,2.55-3.81,11.82-13.82,16.26-14.25.76-.07,1.45-.28,1.26.77-.11.62-5.01,4.9-5.99,6.01-5.07,5.74-10.57,15.75-12.29,23.21-.12.51-.72,2.1.27,2.02,3.42-9.17,8.6-18.01,15.68-24.82,3.88-3.73,9.72-8.76,15.32-8.67ZM15.39,100l2.07-5.68,5.93-10.31c-3.9,2.85-7.25,8.7-8.38,13.37-.12.51-.58,2.65.38,2.63Z"/>
    <path class="cls-1" d="M53.84,187.94c-1.53.96-5.4-3.51-6.46-4.67-4.78-5.26-8.99-12.87-10.74-19.76-.85-3.33-3.29-11.58,1.75-12.01,1.53,6.9,2.95,14.97,7.5,20.5-1.77-6.18-4.54-12.22-5.01-18.73-.21-2.9-.75-8.09,1.77-9.76.94,0,1.81,10.07,2.4,11.59l1.85,4.9c-1.86-10.98-.75-21.6,1.01-32.5,2.36-.87,3.59,4.82,5.2,4.48l3.05-4.98c1.55.68,2.6,6.61,3.38,8.62,1.38,3.57,3.11,7.04,5.38,10.12,1.05,1.42,6.93,7.19,6.97,7.99-1.53,9.36-8.73,15.64-13.07,23.43-.82,1.47-4.46,10.46-4.96,10.78ZM52.89,145v9c1.31.1.83.07.98-.75.47-2.53,1.18-6.36-.98-8.25Z"/>
    <path class="cls-1" d="M122.84,131.94c.38-.22,2.54-5.69,4.05-4.44.46.38,1.79,10.31,1.94,11.82.72,7.11.06,13.6-.43,20.68l2.36-8.38,1.14-8.11c3.05.8,2.67,5.7,2.49,8.24-.51,6.95-3.02,13.81-5.49,20.26,1.33.28.86-.34,1.24-.98,3.37-5.74,5.13-12.52,6.5-19.02l1.27-.25c3.72,1.92.73,11.33-.37,14.65-1.64,4.98-5.02,11.11-8.39,15.11-.82.97-6.28,6.52-7.01,6.52s-.83-.37-1.18-.84c-2-2.69-3.38-7.71-5.16-10.84-4.24-7.46-11.09-13.56-12.71-22.61.05-1.38,4.62-5.1,5.79-6.51,3.07-3.7,5.39-7.95,7.03-12.47.37-1.01,1.71-8.44,2.99-7.53,1.02.95,2.02,5.81,3.94,4.7ZM122.39,152.25c.34-2.34-.25-5.33,0-7.75-2.04.84-1.99,8.46-.75,9,.24-.12.73-1.16.75-1.25Z"/>
    <path class="cls-1" d="M59.89,186c2.75,8.12,8.64,14.49,14.02,20.78-1.62,9.79-10.62,16.56-11.02,26.72-.99.94-6.02-3.39-7-4.25-4.09-3.56-8.59-9.09-11.08-13.92-1.71-3.33-3.34-7.02-2.91-10.84l1.92.09c2.18,4.8,4.46,10.55,8.57,13.91-1.69-3.83-4.05-7.38-5.35-11.39-.75-2.31-3.5-10.54.35-10.11,1.01,4.04,3.26,8.37,6,11.5l-4.99-17.73,1.01-.55,5.2,3.27c.88-.26,2.73-7.65,5.28-7.49ZM57.89,202l-1,.26c.81,2.23,1.13,5.02,3.5,6.24l-2.5-6.5Z"/>
    <path class="cls-1" d="M125.89,190c.05,6.3-2.8,12.06-4.49,17.99l3.08-4.16,2.95-6.81h1.43c1.25,7.69-3.48,14.69-6.46,21.47,3.91-3.6,6.42-9.1,8.52-13.98l1.5.2.4.61c-.92,10.04-8.49,19.59-16.19,25.66-.69.54-4.19,3.55-4.74,3.01-.16-10.5-10.1-17.42-10.92-27.64,5.79-6.15,10.73-12.6,14.17-20.36,1.9-.43,4.36,7.94,4.99,7.99l5.75-3.99ZM113.89,208.5c1.19,1.19,4.43-5.88,3.99-6.99-2.43,1.51-2.48,4.79-3.99,6.99Z"/>
    <path class="cls-1" d="M97.89,210c1.87,4.42-2.76,7.62-3.99,11.5l5.81-4.96c1.07-.19,2.36,2.24,2.19,3.19l-8,14.28,9.48-10.26c5.37,1.73.3,7.38-2,10-2.56,2.9-5.62,4.98-8.49,7.51-1.28,1.13-4.77,5.55-6.14,5.2-4.04-4.96-9.44-8.63-13.61-13.44-1.08-1.25-4.4-5.07-4.04-6.51s3.5-5.63,4.48-7.56c1.46-2.86,2.75-5.91,3.82-8.94.64-.46,5.06,4.21,5.75,4.99,1.49,1.7,2.58,3.75,4,5.51.73.18.82-.46,1.17-.83,1.82-1.93,3.37-5.3,5.63-7.37.64-.59,3.16-2.83,3.94-2.3Z"/>
    <path class="cls-1" d="M31.89,158.5c.8,6.68,2.86,12.7,6.3,18.46,1.08,1.82,6.53,8.44,6.7,9.3,1.36,6.89-7.68,18.12-8.5,25.24-.54.41-3.67-3.41-4.19-4.05-6.35-7.8-11.69-19.58-12.29-29.71-.18-3.03-.33-8.26,3.49-8.74.47,6.17.99,12.68,2.56,18.69.16.62.67,2.2,1.44,2.3l-1.54-16.75c1.12-4.13-.48-7.28,2.04-11,.43-.64,3.37-4.19,3.99-3.75ZM31.89,178c-1.17-.07-.88-.17-1,.74-.26,2-.35,6,1.5,7.26l-.5-8Z"/>
    <path class="cls-1" d="M147.4,190c1.54.26.78-.43,1-1.22,1.74-6.24,2.75-13.06,2.99-19.52,4.02-.47,3.71,5.59,3.52,8.52-.4,6.32-2.98,14.48-5.94,20.07-1.15,2.17-8.49,13.62-10.33,13.67-.88-6.05-10.97-20.53-8.5-26,.37-.81,4.14-4.8,5.15-6.35,4.03-6.21,6.84-13.25,7.6-20.65.83-.19,1.01.27,1.49.76,1.24,1.28,3.71,4.32,3.98,6.02.51,3.27.09,8.12,0,11.45-.11,4.63-.07,8.66-.97,13.27ZM143.89,184.25c.42-1.97-.3-5.11,0-7.25l-1.52,6.23.03,2.77c.56-.09,1.41-1.36,1.5-1.75Z"/>
    <path class="cls-1" d="M65.39,41c-1.87,3.44-4.38,6.51-6.4,9.85-.47.78-1.75,2.28-1.36,3.14,7.76-7,11.54-17.21,22.65-19.35,4.14-.8,4.68-1.23,3.46,3.46-4.6,17.58-24.46,30.99-41.72,33.79-.73.12-1.48.33-2.14-.13-.82-.58-.19-.79.12-1.4,4.43-8.85,14.2-22.04,22.23-27.78.51-.36,2.73-1.97,3.17-1.58Z"/>
    <path class="cls-1" d="M116.89,53l-6.99-11.99c.82-.14,1.34.39,1.96.79,6.54,4.25,20.46,21.24,22.95,28.55.19.54.98.91.09,1.41s-1.17.02-1.89-.11c-17.07-3.17-33.85-13.38-40.49-30.01-.71-1.77-3.52-7.77-.52-7.53,11.41.92,13.96,7.42,20.64,14.91l4.25,3.99Z"/>
    <path class="cls-1" d="M70.39,33c.16,1.61-1.69,1.42-2.77,1.98-7.74,4.06-13.57,9.19-19.22,15.78-4.12,4.8-4.2,7.78-11.82,8.68-4.97.59-13.63,1.54-18.43,1.57-.61,0-1.63.24-1.26-.76.19-.5,2.66-3.59,3.24-4.26,4.2-4.92,10.55-9.59,16.1-12.9,1.85-1.1,13.65-7.48,14.65-6.59-.74,2.12-3.48,4.06-5.26,5.48-2.53,2.02-5.42,3.93-8.23,5.52-.12.91,1.08.46,1.52.27,5.1-2.16,20.94-14.78,24.22-14.78h7.25Z"/>
    <path class="cls-1" d="M135.89,47.5c-3.43-3.36-8.06-5.91-11.51-9.24-.54-.52-1.17-.88-.99-1.76.61-.54,6.12,2.08,7.18,2.57,8.47,3.91,17.44,9.87,23.58,16.92.91,1.05,5.31,5.61,1.86,5.18-5.95-.74-11.92-1.02-17.8-1.73-8.77-1.07-8.64-4.84-13.56-10.44-4.08-4.64-10.02-9.47-15.3-12.7-.63-.38-5.91-2.46-4.96-3.29,12.79-1.78,20.46,10.78,31.5,14.49Z"/>
    <path class="cls-1" d="M92.89,0c-2.98,9.45-2.41,18.81-2.72,28.53-6.37,2.34-6.78-1.85-7.63-6.93-.58-3.43-1.45-17.3-.04-19.74.37-.65.53-1.02,1.39-.86v8.5c.94-.19.92-.98,1.01-1.74.34-2.59.75-5.17.99-7.76h7Z"/>
  
  </g>
</svg> -->

<svg id="loader-svg" xmlns="http://www.w3.org/2000/svg" viewBox="0 0 174.25 246.47">
  <defs>
    <clipPath id="reveal-clip">
      <path id="reveal-wave" d="" />
    </clipPath>
  </defs>

  <!-- Capa 1: Silueta gris estática -->
  <g class="loader-outline" fill="#686868">
    <path class="cls-1" d="M160.65,72.49c-2.17-2.34-9.05-8.38-11.99-8.52-.75-.03-1.48-.28-1.27.77,9.09,8.1,16.21,18.67,18.5,30.76l-6.6-12.65c-3.66-5.61-7.92-10.65-13.16-14.84-3.38-2.7-6.62-5.63-11.24-5.51-.82.85,2.74,6.21,3.5,7.25,1.52,2.1,4.87,4.7,6.02,6.48.4.61.62.99.48,1.77-.34.32-8.24-.7-9.22-1.03-3.58-1.21-3.49-.88-7-1.5-1.41-.25-2.94-1.96-4.78-1.47,1.21,8.32,3.6,16.52,3,25-1.26.37-1.24-1.08-1.36-1.88-.79-5.34-.85-9.59-2.62-14.89-1.78-5.37-4.44-13.01-11.03-12.97,2.59,7.08,6.45,14.44,5.26,22.24-1.77-4.05-2.16-8.65-3.73-12.77-1.89-4.98-6.67-12.28-10.26-16.24-.57-.62-3.43-3.84-4.26-2.99-.03,7.16,3.68,13.7,5.5,20.5-3.27-4.18-5.96-10.03-7.64-15.11-2.3-6.96-2.42-9.3-5.95-16.05-.58-1.12-2.74-7.83-3.16-7.83-2.47,5.54-5.49,10.49-9.24,15.25-.02,16.7,3.47,30.29,14.48,43,8.84,10.22,20.68,15.06,29.26,25.23,6.33-8.38,9.99-20.26,9.3-30.78-.14-2.12-.5-4.25-.75-6.36-.28-2.33-.57-4.64-.95-6.95-.04-.28-.09-.56-.03-.83.23-1.13,1.93-.78,2.67-.48,1.67.66,2.38,2.54,2.66,4.18.9,5.39-.87,11.41,1.95,16.38,6.33,11.14,20.76,12.65,31.05,18.45,1.03.58,5.12,4.15,5.85,3.4,1.42-17.25-1.11-35.87-13.24-49.01ZM86.9,76l7.48,16c-4.5-3.95-6.91-10.13-7.48-16ZM151.39,84.5c.9-.92,4.21,4.06,4.58,4.67,1.64,2.66,3.29,6.18,3.41,9.33l-7.99-14Z"/>
    <path class="cls-1" d="M94.4,119.5c1.29.26.87-.27,1.25-.97.81-1.5,2.39-7.55,2.71-7.81,1.05-.82,2.93.89,2.99,1.99.13,2.49-1.96,9.97-2.82,12.67-1.05,3.28-2.4,6.43-4.09,9.42l.95.69c4.06-6.06,6.79-12.89,8.53-19.98.61-.52,3.33.83,3.73,1.49,1.11,1.81-2.93,13.91-4.02,16.48-.73,1.71-1.73,3.73-2.65,5.35-1.39,2.46-3.42,4.58-4.58,7.16,7.48-6.16,11.27-16.09,14.5-25,1.83-.02,4.09,1.6,3.9,3.62s-2.38,8.03-3.32,10.21c-4.82,11.23-15.44,19.63-24.27,27.63-8.54-9.01-18.95-16.39-23.83-28.21-1.38-3.35-2.29-6.99-3.39-10.44.32-1.63,12.86-9.68,15.16-11.8,4.4-4.06,7.12-9.52,11.02-13.99l8.49,8.96-.27,12.52Z"/>
    <path class="cls-1" d="M95.9,187c4.62-4.98,5.89-12.43,8.75-18.5,1.05-.24,3.25,3.97,3.15,5.12-.23,2.59-3.68,10.38-4.98,13.05l-5.92,10.32c2.28-1.7,4.07-4.22,5.7-6.55,1.38-1.98,6.67-12.32,7.28-12.72,1.04-.69,2.3,1.28,2.42,2.12.63,4.32-4.67,13.49-7.42,16.88l-17.24,16.78-1.27-.75c-8.71-10.05-22.91-18.46-23.88-32.91,5.04-7.24,9.3-14.92,13.15-22.84,4.93,3.42,8.29,8.4,12.01,12.97,3.42-4.77,7.25-9.5,11.95-12.97.71.14,2.41,3.61,2.59,4.45.63,2.88-2.52,13.56-3.53,17.04-.83,2.85-2.26,5.54-2.75,8.49Z"/>
    <path class="cls-1" d="M73.89,62c-1.04,5.71-3.53,11.05-6.5,15.99.86.73,4.38-3.07,4.99-3.76.47-.53,2.66-4.63,3.51-3.74.61,4.8,1.29,9.68,3.06,14.19,1.17,2.97,4.82,7.47,4.22,10.34-.51,2.44-4.57,8.7-6.27,10.74-5.28,6.29-13.21,10.02-19.25,15.25-1.79,1.56-3.12,3.56-5.01,4.98-1.3-.28-5.75-13.46-6.39-15.61-3.32-11.1-4.03-17.1-1.23-28.5.47-1.93,1.68-6.89,3.22-7.78l11.14-3.6c-5.16,8.39-8.94,20.87-8.5,30.75.03.61-.38,1.86.49,1.74,1.38-11.27,4.79-23.4,11.6-32.66,2.73-3.71,6.35-7.23,10.91-8.34ZM60.89,108.5c5.92-1.97,10.55-7.45,12.99-12.99-4.02,4.75-8.24,8.98-12.99,12.99Z"/>
    <path class="cls-1" d="M13.34,174.94l-1.41.03c-3.64-11.15-6.24-22.9-5.56-34.74.24-4.24,2.09-17.64,5.25-20.25.73-.6,2.94-1.48,3.26-.21.09.36-1.63,5.9-1.86,7.11-1.06,5.6-2.37,12.76-2.13,18.37.03.61-.38,1.86.5,1.74,1.01-7.99,3.09-16.72,6-24.26,1.05-2.74,1.86-5.9,4.77-7.23,1.05-.22.81.5.74,1.24-.23,2.62-2.69,7.59-3.36,10.64-.4,1.82-.96,4.56-1.13,6.37-.06.65-.42,3.11.49,3.24,1.85-7.53,4.75-17.81,10.24-23.51,3.17-3.29,8.02-5.29,10.52-9.47.66,0,2.84,8.98,3.42,10.57s2.05,3.24,2.3,4.7c2.33,13.57-12.93,32.49-21.22,42.23-3.67,4.31-8.86,7.72-10.81,13.43ZM28.89,125c-1.37-.31-.85.42-1.24.99-2.19,3.28-3.18,6.5-2.76,10.5l3.99-11.49Z"/>
    <path class="cls-1" d="M145.72,113.18c2.22,2.21,5.7,9.25,6.92,12.33,1.61,4.05,2.38,8.37,3.76,12.49.86.13.53-1.19.49-1.73-.54-6.58-3.24-13.67-5-20.01-.19-1.82,3.05.47,3.46,1.05,1.68,2.41,4.92,13.77,5.81,17.19,1.04,3.99,1.94,8.38,2.25,12.5l.52-4.77c-.76-7.56-1.93-15.12-4.01-22.45,3.23-2.62,5.45,3.72,6.24,6.22,2.6,8.24,2.75,20.62,1.68,29.19-.31,2.5-3.83,19.19-5.19,19.81-.36.16-.95.14-1.29-.3-1.07-1.4-2.02-4.12-3.47-5.94-9.94-12.4-22.02-21.62-26.96-38.04-3.01-9.99-1.01-10.77,1.99-19.45.61-1.76,1.03-5.59,1.72-6.78.5-.85.58-.27,1.01,0,1.63,1.07,3.83,4.01,5.51,5.49,1.28,1.13,3.37,2,4.56,3.19ZM146.89,125l-.99.24,4.49,11.76c.51-4.38-1.82-8.18-3.5-12Z"/>
    <path class="cls-1" d="M39.89,62.5c-1.83,5.62-5.92,10.12-9.99,14.25-.5,1.2,3.66.8,4.27.76,1.35-.09,7.61-1.85,7.72-.27-1.78,3.29-2.83,7.77-3.01,11.48-.24,5.09,1.46,5.89-1.27,10.73-5.73,10.16-18.16,12.58-28.05,16.95-1.54.39-7.56,5.31-8.4,5.09-.66-.18-.72-1.14-.79-1.72-1.5-13.14,1.62-30.48,9.01-41.54,2.55-3.81,11.82-13.82,16.26-14.25.76-.07,1.45-.28,1.26.77-.11.62-5.01,4.9-5.99,6.01-5.07,5.74-10.57,15.75-12.29,23.21-.12.51-.72,2.1.27,2.02,3.42-9.17,8.6-18.01,15.68-24.82,3.88-3.73,9.72-8.76,15.32-8.67ZM15.39,100l2.07-5.68,5.93-10.31c-3.9,2.85-7.25,8.7-8.38,13.37-.12.51-.58,2.65.38,2.63Z"/>
    <path class="cls-1" d="M53.84,187.94c-1.53.96-5.4-3.51-6.46-4.67-4.78-5.26-8.99-12.87-10.74-19.76-.85-3.33-3.29-11.58,1.75-12.01,1.53,6.9,2.95,14.97,7.5,20.5-1.77-6.18-4.54-12.22-5.01-18.73-.21-2.9-.75-8.09,1.77-9.76.94,0,1.81,10.07,2.4,11.59l1.85,4.9c-1.86-10.98-.75-21.6,1.01-32.5,2.36-.87,3.59,4.82,5.2,4.48l3.05-4.98c1.55.68,2.6,6.61,3.38,8.62,1.38,3.57,3.11,7.04,5.38,10.12,1.05,1.42,6.93,7.19,6.97,7.99-1.53,9.36-8.73,15.64-13.07,23.43-.82,1.47-4.46,10.46-4.96,10.78ZM52.89,145v9c1.31.1.83.07.98-.75.47-2.53,1.18-6.36-.98-8.25Z"/>
    <path class="cls-1" d="M122.84,131.94c.38-.22,2.54-5.69,4.05-4.44.46.38,1.79,10.31,1.94,11.82.72,7.11.06,13.6-.43,20.68l2.36-8.38,1.14-8.11c3.05.8,2.67,5.7,2.49,8.24-.51,6.95-3.02,13.81-5.49,20.26,1.33.28.86-.34,1.24-.98,3.37-5.74,5.13-12.52,6.5-19.02l1.27-.25c3.72,1.92.73,11.33-.37,14.65-1.64,4.98-5.02,11.11-8.39,15.11-.82.97-6.28,6.52-7.01,6.52s-.83-.37-1.18-.84c-2-2.69-3.38-7.71-5.16-10.84-4.24-7.46-11.09-13.56-12.71-22.61.05-1.38,4.62-5.1,5.79-6.51,3.07-3.7,5.39-7.95,7.03-12.47.37-1.01,1.71-8.44,2.99-7.53,1.02.95,2.02,5.81,3.94,4.7ZM122.39,152.25c.34-2.34-.25-5.33,0-7.75-2.04.84-1.99,8.46-.75,9,.24-.12.73-1.16.75-1.25Z"/>
    <path class="cls-1" d="M59.89,186c2.75,8.12,8.64,14.49,14.02,20.78-1.62,9.79-10.62,16.56-11.02,26.72-.99.94-6.02-3.39-7-4.25-4.09-3.56-8.59-9.09-11.08-13.92-1.71-3.33-3.34-7.02-2.91-10.84l1.92.09c2.18,4.8,4.46,10.55,8.57,13.91-1.69-3.83-4.05-7.38-5.35-11.39-.75-2.31-3.5-10.54.35-10.11,1.01,4.04,3.26,8.37,6,11.5l-4.99-17.73,1.01-.55,5.2,3.27c.88-.26,2.73-7.65,5.28-7.49ZM57.89,202l-1,.26c.81,2.23,1.13,5.02,3.5,6.24l-2.5-6.5Z"/>
    <path class="cls-1" d="M125.89,190c.05,6.3-2.8,12.06-4.49,17.99l3.08-4.16,2.95-6.81h1.43c1.25,7.69-3.48,14.69-6.46,21.47,3.91-3.6,6.42-9.1,8.52-13.98l1.5.2.4.61c-.92,10.04-8.49,19.59-16.19,25.66-.69.54-4.19,3.55-4.74,3.01-.16-10.5-10.1-17.42-10.92-27.64,5.79-6.15,10.73-12.6,14.17-20.36,1.9-.43,4.36,7.94,4.99,7.99l5.75-3.99ZM113.89,208.5c1.19,1.19,4.43-5.88,3.99-6.99-2.43,1.51-2.48,4.79-3.99,6.99Z"/>
    <path class="cls-1" d="M97.89,210c1.87,4.42-2.76,7.62-3.99,11.5l5.81-4.96c1.07-.19,2.36,2.24,2.19,3.19l-8,14.28,9.48-10.26c5.37,1.73.3,7.38-2,10-2.56,2.9-5.62,4.98-8.49,7.51-1.28,1.13-4.77,5.55-6.14,5.2-4.04-4.96-9.44-8.63-13.61-13.44-1.08-1.25-4.4-5.07-4.04-6.51s3.5-5.63,4.48-7.56c1.46-2.86,2.75-5.91,3.82-8.94.64-.46,5.06,4.21,5.75,4.99,1.49,1.7,2.58,3.75,4,5.51.73.18.82-.46,1.17-.83,1.82-1.93,3.37-5.3,5.63-7.37.64-.59,3.16-2.83,3.94-2.3Z"/>
    <path class="cls-1" d="M31.89,158.5c.8,6.68,2.86,12.7,6.3,18.46,1.08,1.82,6.53,8.44,6.7,9.3,1.36,6.89-7.68,18.12-8.5,25.24-.54.41-3.67-3.41-4.19-4.05-6.35-7.8-11.69-19.58-12.29-29.71-.18-3.03-.33-8.26,3.49-8.74.47,6.17.99,12.68,2.56,18.69.16.62.67,2.2,1.44,2.3l-1.54-16.75c1.12-4.13-.48-7.28,2.04-11,.43-.64,3.37-4.19,3.99-3.75ZM31.89,178c-1.17-.07-.88-.17-1,.74-.26,2-.35,6,1.5,7.26l-.5-8Z"/>
    <path class="cls-1" d="M147.4,190c1.54.26.78-.43,1-1.22,1.74-6.24,2.75-13.06,2.99-19.52,4.02-.47,3.71,5.59,3.52,8.52-.4,6.32-2.98,14.48-5.94,20.07-1.15,2.17-8.49,13.62-10.33,13.67-.88-6.05-10.97-20.53-8.5-26,.37-.81,4.14-4.8,5.15-6.35,4.03-6.21,6.84-13.25,7.6-20.65.83-.19,1.01.27,1.49.76,1.24,1.28,3.71,4.32,3.98,6.02.51,3.27.09,8.12,0,11.45-.11,4.63-.07,8.66-.97,13.27ZM143.89,184.25c.42-1.97-.3-5.11,0-7.25l-1.52,6.23.03,2.77c.56-.09,1.41-1.36,1.5-1.75Z"/>
    <path class="cls-1" d="M65.39,41c-1.87,3.44-4.38,6.51-6.4,9.85-.47.78-1.75,2.28-1.36,3.14,7.76-7,11.54-17.21,22.65-19.35,4.14-.8,4.68-1.23,3.46,3.46-4.6,17.58-24.46,30.99-41.72,33.79-.73.12-1.48.33-2.14-.13-.82-.58-.19-.79.12-1.4,4.43-8.85,14.2-22.04,22.23-27.78.51-.36,2.73-1.97,3.17-1.58Z"/>
    <path class="cls-1" d="M116.89,53l-6.99-11.99c.82-.14,1.34.39,1.96.79,6.54,4.25,20.46,21.24,22.95,28.55.19.54.98.91.09,1.41s-1.17.02-1.89-.11c-17.07-3.17-33.85-13.38-40.49-30.01-.71-1.77-3.52-7.77-.52-7.53,11.41.92,13.96,7.42,20.64,14.91l4.25,3.99Z"/>
    <path class="cls-1" d="M70.39,33c.16,1.61-1.69,1.42-2.77,1.98-7.74,4.06-13.57,9.19-19.22,15.78-4.12,4.8-4.2,7.78-11.82,8.68-4.97.59-13.63,1.54-18.43,1.57-.61,0-1.63.24-1.26-.76.19-.5,2.66-3.59,3.24-4.26,4.2-4.92,10.55-9.59,16.1-12.9,1.85-1.1,13.65-7.48,14.65-6.59-.74,2.12-3.48,4.06-5.26,5.48-2.53,2.02-5.42,3.93-8.23,5.52-.12.91,1.08.46,1.52.27,5.1-2.16,20.94-14.78,24.22-14.78h7.25Z"/>
    <path class="cls-1" d="M135.89,47.5c-3.43-3.36-8.06-5.91-11.51-9.24-.54-.52-1.17-.88-.99-1.76.61-.54,6.12,2.08,7.18,2.57,8.47,3.91,17.44,9.87,23.58,16.92.91,1.05,5.31,5.61,1.86,5.18-5.95-.74-11.92-1.02-17.8-1.73-8.77-1.07-8.64-4.84-13.56-10.44-4.08-4.64-10.02-9.47-15.3-12.7-.63-.38-5.91-2.46-4.96-3.29,12.79-1.78,20.46,10.78,31.5,14.49Z"/>
    <path class="cls-1" d="M92.89,0c-2.98,9.45-2.41,18.81-2.72,28.53-6.37,2.34-6.78-1.85-7.63-6.93-.58-3.43-1.45-17.3-.04-19.74.37-.65.53-1.02,1.39-.86v8.5c.94-.19.92-.98,1.01-1.74.34-2.59.75-5.17.99-7.76h7Z"/>
  </g>

  <!-- Capa 2: Relleno verde con clip animado -->
  <g class="loader-fill" clip-path="url(#reveal-clip)" fill="#216639">
    <path class="cls-1" d="M160.65,72.49c-2.17-2.34-9.05-8.38-11.99-8.52-.75-.03-1.48-.28-1.27.77,9.09,8.1,16.21,18.67,18.5,30.76l-6.6-12.65c-3.66-5.61-7.92-10.65-13.16-14.84-3.38-2.7-6.62-5.63-11.24-5.51-.82.85,2.74,6.21,3.5,7.25,1.52,2.1,4.87,4.7,6.02,6.48.4.61.62.99.48,1.77-.34.32-8.24-.7-9.22-1.03-3.58-1.21-3.49-.88-7-1.5-1.41-.25-2.94-1.96-4.78-1.47,1.21,8.32,3.6,16.52,3,25-1.26.37-1.24-1.08-1.36-1.88-.79-5.34-.85-9.59-2.62-14.89-1.78-5.37-4.44-13.01-11.03-12.97,2.59,7.08,6.45,14.44,5.26,22.24-1.77-4.05-2.16-8.65-3.73-12.77-1.89-4.98-6.67-12.28-10.26-16.24-.57-.62-3.43-3.84-4.26-2.99-.03,7.16,3.68,13.7,5.5,20.5-3.27-4.18-5.96-10.03-7.64-15.11-2.3-6.96-2.42-9.3-5.95-16.05-.58-1.12-2.74-7.83-3.16-7.83-2.47,5.54-5.49,10.49-9.24,15.25-.02,16.7,3.47,30.29,14.48,43,8.84,10.22,20.68,15.06,29.26,25.23,6.33-8.38,9.99-20.26,9.3-30.78-.14-2.12-.5-4.25-.75-6.36-.28-2.33-.57-4.64-.95-6.95-.04-.28-.09-.56-.03-.83.23-1.13,1.93-.78,2.67-.48,1.67.66,2.38,2.54,2.66,4.18.9,5.39-.87,11.41,1.95,16.38,6.33,11.14,20.76,12.65,31.05,18.45,1.03.58,5.12,4.15,5.85,3.4,1.42-17.25-1.11-35.87-13.24-49.01ZM86.9,76l7.48,16c-4.5-3.95-6.91-10.13-7.48-16ZM151.39,84.5c.9-.92,4.21,4.06,4.58,4.67,1.64,2.66,3.29,6.18,3.41,9.33l-7.99-14Z"/>
    <path class="cls-1" d="M94.4,119.5c1.29.26.87-.27,1.25-.97.81-1.5,2.39-7.55,2.71-7.81,1.05-.82,2.93.89,2.99,1.99.13,2.49-1.96,9.97-2.82,12.67-1.05,3.28-2.4,6.43-4.09,9.42l.95.69c4.06-6.06,6.79-12.89,8.53-19.98.61-.52,3.33.83,3.73,1.49,1.11,1.81-2.93,13.91-4.02,16.48-.73,1.71-1.73,3.73-2.65,5.35-1.39,2.46-3.42,4.58-4.58,7.16,7.48-6.16,11.27-16.09,14.5-25,1.83-.02,4.09,1.6,3.9,3.62s-2.38,8.03-3.32,10.21c-4.82,11.23-15.44,19.63-24.27,27.63-8.54-9.01-18.95-16.39-23.83-28.21-1.38-3.35-2.29-6.99-3.39-10.44.32-1.63,12.86-9.68,15.16-11.8,4.4-4.06,7.12-9.52,11.02-13.99l8.49,8.96-.27,12.52Z"/>
    <path class="cls-1" d="M95.9,187c4.62-4.98,5.89-12.43,8.75-18.5,1.05-.24,3.25,3.97,3.15,5.12-.23,2.59-3.68,10.38-4.98,13.05l-5.92,10.32c2.28-1.7,4.07-4.22,5.7-6.55,1.38-1.98,6.67-12.32,7.28-12.72,1.04-.69,2.3,1.28,2.42,2.12.63,4.32-4.67,13.49-7.42,16.88l-17.24,16.78-1.27-.75c-8.71-10.05-22.91-18.46-23.88-32.91,5.04-7.24,9.3-14.92,13.15-22.84,4.93,3.42,8.29,8.4,12.01,12.97,3.42-4.77,7.25-9.5,11.95-12.97.71.14,2.41,3.61,2.59,4.45.63,2.88-2.52,13.56-3.53,17.04-.83,2.85-2.26,5.54-2.75,8.49Z"/>
    <path class="cls-1" d="M73.89,62c-1.04,5.71-3.53,11.05-6.5,15.99.86.73,4.38-3.07,4.99-3.76.47-.53,2.66-4.63,3.51-3.74.61,4.8,1.29,9.68,3.06,14.19,1.17,2.97,4.82,7.47,4.22,10.34-.51,2.44-4.57,8.7-6.27,10.74-5.28,6.29-13.21,10.02-19.25,15.25-1.79,1.56-3.12,3.56-5.01,4.98-1.3-.28-5.75-13.46-6.39-15.61-3.32-11.1-4.03-17.1-1.23-28.5.47-1.93,1.68-6.89,3.22-7.78l11.14-3.6c-5.16,8.39-8.94,20.87-8.5,30.75.03.61-.38,1.86.49,1.74,1.38-11.27,4.79-23.4,11.6-32.66,2.73-3.71,6.35-7.23,10.91-8.34ZM60.89,108.5c5.92-1.97,10.55-7.45,12.99-12.99-4.02,4.75-8.24,8.98-12.99,12.99Z"/>
    <path class="cls-1" d="M13.34,174.94l-1.41.03c-3.64-11.15-6.24-22.9-5.56-34.74.24-4.24,2.09-17.64,5.25-20.25.73-.6,2.94-1.48,3.26-.21.09.36-1.63,5.9-1.86,7.11-1.06,5.6-2.37,12.76-2.13,18.37.03.61-.38,1.86.5,1.74,1.01-7.99,3.09-16.72,6-24.26,1.05-2.74,1.86-5.9,4.77-7.23,1.05-.22.81.5.74,1.24-.23,2.62-2.69,7.59-3.36,10.64-.4,1.82-.96,4.56-1.13,6.37-.06.65-.42,3.11.49,3.24,1.85-7.53,4.75-17.81,10.24-23.51,3.17-3.29,8.02-5.29,10.52-9.47.66,0,2.84,8.98,3.42,10.57s2.05,3.24,2.3,4.7c2.33,13.57-12.93,32.49-21.22,42.23-3.67,4.31-8.86,7.72-10.81,13.43ZM28.89,125c-1.37-.31-.85.42-1.24.99-2.19,3.28-3.18,6.5-2.76,10.5l3.99-11.49Z"/>
    <path class="cls-1" d="M145.72,113.18c2.22,2.21,5.7,9.25,6.92,12.33,1.61,4.05,2.38,8.37,3.76,12.49.86.13.53-1.19.49-1.73-.54-6.58-3.24-13.67-5-20.01-.19-1.82,3.05.47,3.46,1.05,1.68,2.41,4.92,13.77,5.81,17.19,1.04,3.99,1.94,8.38,2.25,12.5l.52-4.77c-.76-7.56-1.93-15.12-4.01-22.45,3.23-2.62,5.45,3.72,6.24,6.22,2.6,8.24,2.75,20.62,1.68,29.19-.31,2.5-3.83,19.19-5.19,19.81-.36.16-.95.14-1.29-.3-1.07-1.4-2.02-4.12-3.47-5.94-9.94-12.4-22.02-21.62-26.96-38.04-3.01-9.99-1.01-10.77,1.99-19.45.61-1.76,1.03-5.59,1.72-6.78.5-.85.58-.27,1.01,0,1.63,1.07,3.83,4.01,5.51,5.49,1.28,1.13,3.37,2,4.56,3.19ZM146.89,125l-.99.24,4.49,11.76c.51-4.38-1.82-8.18-3.5-12Z"/>
    <path class="cls-1" d="M39.89,62.5c-1.83,5.62-5.92,10.12-9.99,14.25-.5,1.2,3.66.8,4.27.76,1.35-.09,7.61-1.85,7.72-.27-1.78,3.29-2.83,7.77-3.01,11.48-.24,5.09,1.46,5.89-1.27,10.73-5.73,10.16-18.16,12.58-28.05,16.95-1.54.39-7.56,5.31-8.4,5.09-.66-.18-.72-1.14-.79-1.72-1.5-13.14,1.62-30.48,9.01-41.54,2.55-3.81,11.82-13.82,16.26-14.25.76-.07,1.45-.28,1.26.77-.11.62-5.01,4.9-5.99,6.01-5.07,5.74-10.57,15.75-12.29,23.21-.12.51-.72,2.1.27,2.02,3.42-9.17,8.6-18.01,15.68-24.82,3.88-3.73,9.72-8.76,15.32-8.67ZM15.39,100l2.07-5.68,5.93-10.31c-3.9,2.85-7.25,8.7-8.38,13.37-.12.51-.58,2.65.38,2.63Z"/>
    <path class="cls-1" d="M53.84,187.94c-1.53.96-5.4-3.51-6.46-4.67-4.78-5.26-8.99-12.87-10.74-19.76-.85-3.33-3.29-11.58,1.75-12.01,1.53,6.9,2.95,14.97,7.5,20.5-1.77-6.18-4.54-12.22-5.01-18.73-.21-2.9-.75-8.09,1.77-9.76.94,0,1.81,10.07,2.4,11.59l1.85,4.9c-1.86-10.98-.75-21.6,1.01-32.5,2.36-.87,3.59,4.82,5.2,4.48l3.05-4.98c1.55.68,2.6,6.61,3.38,8.62,1.38,3.57,3.11,7.04,5.38,10.12,1.05,1.42,6.93,7.19,6.97,7.99-1.53,9.36-8.73,15.64-13.07,23.43-.82,1.47-4.46,10.46-4.96,10.78ZM52.89,145v9c1.31.1.83.07.98-.75.47-2.53,1.18-6.36-.98-8.25Z"/>
    <path class="cls-1" d="M122.84,131.94c.38-.22,2.54-5.69,4.05-4.44.46.38,1.79,10.31,1.94,11.82.72,7.11.06,13.6-.43,20.68l2.36-8.38,1.14-8.11c3.05.8,2.67,5.7,2.49,8.24-.51,6.95-3.02,13.81-5.49,20.26,1.33.28.86-.34,1.24-.98,3.37-5.74,5.13-12.52,6.5-19.02l1.27-.25c3.72,1.92.73,11.33-.37,14.65-1.64,4.98-5.02,11.11-8.39,15.11-.82.97-6.28,6.52-7.01,6.52s-.83-.37-1.18-.84c-2-2.69-3.38-7.71-5.16-10.84-4.24-7.46-11.09-13.56-12.71-22.61.05-1.38,4.62-5.1,5.79-6.51,3.07-3.7,5.39-7.95,7.03-12.47.37-1.01,1.71-8.44,2.99-7.53,1.02.95,2.02,5.81,3.94,4.7ZM122.39,152.25c.34-2.34-.25-5.33,0-7.75-2.04.84-1.99,8.46-.75,9,.24-.12.73-1.16.75-1.25Z"/>
    <path class="cls-1" d="M59.89,186c2.75,8.12,8.64,14.49,14.02,20.78-1.62,9.79-10.62,16.56-11.02,26.72-.99.94-6.02-3.39-7-4.25-4.09-3.56-8.59-9.09-11.08-13.92-1.71-3.33-3.34-7.02-2.91-10.84l1.92.09c2.18,4.8,4.46,10.55,8.57,13.91-1.69-3.83-4.05-7.38-5.35-11.39-.75-2.31-3.5-10.54.35-10.11,1.01,4.04,3.26,8.37,6,11.5l-4.99-17.73,1.01-.55,5.2,3.27c.88-.26,2.73-7.65,5.28-7.49ZM57.89,202l-1,.26c.81,2.23,1.13,5.02,3.5,6.24l-2.5-6.5Z"/>
    <path class="cls-1" d="M125.89,190c.05,6.3-2.8,12.06-4.49,17.99l3.08-4.16,2.95-6.81h1.43c1.25,7.69-3.48,14.69-6.46,21.47,3.91-3.6,6.42-9.1,8.52-13.98l1.5.2.4.61c-.92,10.04-8.49,19.59-16.19,25.66-.69.54-4.19,3.55-4.74,3.01-.16-10.5-10.1-17.42-10.92-27.64,5.79-6.15,10.73-12.6,14.17-20.36,1.9-.43,4.36,7.94,4.99,7.99l5.75-3.99ZM113.89,208.5c1.19,1.19,4.43-5.88,3.99-6.99-2.43,1.51-2.48,4.79-3.99,6.99Z"/>
    <path class="cls-1" d="M97.89,210c1.87,4.42-2.76,7.62-3.99,11.5l5.81-4.96c1.07-.19,2.36,2.24,2.19,3.19l-8,14.28,9.48-10.26c5.37,1.73.3,7.38-2,10-2.56,2.9-5.62,4.98-8.49,7.51-1.28,1.13-4.77,5.55-6.14,5.2-4.04-4.96-9.44-8.63-13.61-13.44-1.08-1.25-4.4-5.07-4.04-6.51s3.5-5.63,4.48-7.56c1.46-2.86,2.75-5.91,3.82-8.94.64-.46,5.06,4.21,5.75,4.99,1.49,1.7,2.58,3.75,4,5.51.73.18.82-.46,1.17-.83,1.82-1.93,3.37-5.3,5.63-7.37.64-.59,3.16-2.83,3.94-2.3Z"/>
    <path class="cls-1" d="M31.89,158.5c.8,6.68,2.86,12.7,6.3,18.46,1.08,1.82,6.53,8.44,6.7,9.3,1.36,6.89-7.68,18.12-8.5,25.24-.54.41-3.67-3.41-4.19-4.05-6.35-7.8-11.69-19.58-12.29-29.71-.18-3.03-.33-8.26,3.49-8.74.47,6.17.99,12.68,2.56,18.69.16.62.67,2.2,1.44,2.3l-1.54-16.75c1.12-4.13-.48-7.28,2.04-11,.43-.64,3.37-4.19,3.99-3.75ZM31.89,178c-1.17-.07-.88-.17-1,.74-.26,2-.35,6,1.5,7.26l-.5-8Z"/>
    <path class="cls-1" d="M147.4,190c1.54.26.78-.43,1-1.22,1.74-6.24,2.75-13.06,2.99-19.52,4.02-.47,3.71,5.59,3.52,8.52-.4,6.32-2.98,14.48-5.94,20.07-1.15,2.17-8.49,13.62-10.33,13.67-.88-6.05-10.97-20.53-8.5-26,.37-.81,4.14-4.8,5.15-6.35,4.03-6.21,6.84-13.25,7.6-20.65.83-.19,1.01.27,1.49.76,1.24,1.28,3.71,4.32,3.98,6.02.51,3.27.09,8.12,0,11.45-.11,4.63-.07,8.66-.97,13.27ZM143.89,184.25c.42-1.97-.3-5.11,0-7.25l-1.52,6.23.03,2.77c.56-.09,1.41-1.36,1.5-1.75Z"/>
    <path class="cls-1" d="M65.39,41c-1.87,3.44-4.38,6.51-6.4,9.85-.47.78-1.75,2.28-1.36,3.14,7.76-7,11.54-17.21,22.65-19.35,4.14-.8,4.68-1.23,3.46,3.46-4.6,17.58-24.46,30.99-41.72,33.79-.73.12-1.48.33-2.14-.13-.82-.58-.19-.79.12-1.4,4.43-8.85,14.2-22.04,22.23-27.78.51-.36,2.73-1.97,3.17-1.58Z"/>
    <path class="cls-1" d="M116.89,53l-6.99-11.99c.82-.14,1.34.39,1.96.79,6.54,4.25,20.46,21.24,22.95,28.55.19.54.98.91.09,1.41s-1.17.02-1.89-.11c-17.07-3.17-33.85-13.38-40.49-30.01-.71-1.77-3.52-7.77-.52-7.53,11.41.92,13.96,7.42,20.64,14.91l4.25,3.99Z"/>
    <path class="cls-1" d="M70.39,33c.16,1.61-1.69,1.42-2.77,1.98-7.74,4.06-13.57,9.19-19.22,15.78-4.12,4.8-4.2,7.78-11.82,8.68-4.97.59-13.63,1.54-18.43,1.57-.61,0-1.63.24-1.26-.76.19-.5,2.66-3.59,3.24-4.26,4.2-4.92,10.55-9.59,16.1-12.9,1.85-1.1,13.65-7.48,14.65-6.59-.74,2.12-3.48,4.06-5.26,5.48-2.53,2.02-5.42,3.93-8.23,5.52-.12.91,1.08.46,1.52.27,5.1-2.16,20.94-14.78,24.22-14.78h7.25Z"/>
    <path class="cls-1" d="M135.89,47.5c-3.43-3.36-8.06-5.91-11.51-9.24-.54-.52-1.17-.88-.99-1.76.61-.54,6.12,2.08,7.18,2.57,8.47,3.91,17.44,9.87,23.58,16.92.91,1.05,5.31,5.61,1.86,5.18-5.95-.74-11.92-1.02-17.8-1.73-8.77-1.07-8.64-4.84-13.56-10.44-4.08-4.64-10.02-9.47-15.3-12.7-.63-.38-5.91-2.46-4.96-3.29,12.79-1.78,20.46,10.78,31.5,14.49Z"/>
    <path class="cls-1" d="M92.89,0c-2.98,9.45-2.41,18.81-2.72,28.53-6.37,2.34-6.78-1.85-7.63-6.93-.58-3.43-1.45-17.3-.04-19.74.37-.65.53-1.02,1.39-.86v8.5c.94-.19.92-.98,1.01-1.74.34-2.59.75-5.17.99-7.76h7Z"/>
  </g>
</svg>
